RobotoHinted-Regular.ufo
<glyph name="comma" format="2">
  <advance width="402"/>
  <unicode hex="002C"/>
  <outline>
    <contour>
      <point x="134" y="-290" type="qcurve"/>
      <point x="29" y="-218" type="line"/>
      <point x="76.0" y="-152.5" name="inserted"/>
      <point x="125.0" y="-17.5"/>
      <point x="127" y="52" type="qcurve" smooth="yes"/>
      <point x="127" y="219" type="line"/>
      <point x="308" y="219" type="line"/>
      <point x="308" y="74" type="line" smooth="yes"/>
      <point x="308" y="-27"/>
      <point x="209" y="-229"/>
    </contour>
  </outline>
</glyph>
<glyph name="one" format="2">
  <advance width="1150"/>
  <unicode hex="0031"/>
  <outline>
    <contour>
      <point x="729" y="0" type="line"/>
      <point x="543" y="0" type="line"/>
      <point x="543" y="1233" type="line"/>
      <point x="170" y="1096" type="line"/>
      <point x="170" y="1264" type="line"/>
      <point x="700" y="1463" type="line"/>
      <point x="729" y="1463" type="line"/>
    </contour>
  </outline>
</glyph>
<glyph name="six" format="2">
  <advance width="1150"/>
  <unicode hex="0036"/>
  <outline>
    <contour>
      <point x="847" y="1457" type="line"/>
      <point x="847" y="1300" type="line"/>
      <point x="813" y="1300" type="line" smooth="yes"/>
      <point x="597" y="1296"/>
      <point x="341" y="1048"/>
      <point x="321" y="823" type="qcurve"/>
      <point x="378.5" y="889.0" name="inserted"/>
      <point x="535.5" y="955.0"/>
      <point x="635" y="955" type="qcurve" smooth="yes"/>
      <point x="825" y="955"/>
      <point x="1052" y="687"/>
      <point x="1052" y="475" type="qcurve" smooth="yes"/>
      <point x="1052" y="250"/>
      <point x="807" y="-20"/>
      <point x="601" y="-20" type="qcurve" smooth="yes"/>
      <point x="392" y="-20"/>
      <point x="132" y="301"/>
      <point x="132" y="554" type="qcurve" smooth="yes"/>
      <point x="132" y="625" type="line" smooth="yes"/>
      <point x="132" y="1027"/>
      <point x="475" y="1452"/>
      <point x="814" y="1457" type="qcurve" smooth="yes"/>
    </contour>
    <contour>
      <point x="604" y="801" type="qcurve" smooth="yes"/>
      <point x="509" y="801"/>
      <point x="349" y="687"/>
      <point x="318" y="601" type="qcurve"/>
      <point x="318" y="533" type="line" smooth="yes"/>
      <point x="318" y="353"/>
      <point x="480" y="133"/>
      <point x="601" y="133" type="qcurve" smooth="yes"/>
      <point x="726" y="133"/>
      <point x="869" y="317"/>
      <point x="869" y="466" type="qcurve" smooth="yes"/>
      <point x="869" y="616"/>
      <point x="724" y="801"/>
    </contour>
  </outline>
</glyph>
<glyph name="less" format="2">
  <advance width="1041"/>
  <unicode hex="003C"/>
  <outline>
    <contour>
      <point x="264" y="644" type="line"/>
      <point x="890" y="391" type="line"/>
      <point x="890" y="195" type="line"/>
      <point x="72" y="574" type="line"/>
      <point x="72" y="720" type="line"/>
      <point x="890" y="1098" type="line"/>
      <point x="890" y="902" type="line"/>
    </contour>
  </outline>
</glyph>
<glyph name="at" format="2">
  <advance width="1839"/>
  <unicode hex="0040"/>
  <outline>
    <contour>
      <point x="1738" y="502" type="qcurve" smooth="yes"/>
      <point x="1726" y="260"/>
      <point x="1510" y="-20"/>
      <point x="1329" y="-20" type="qcurve" smooth="yes"/>
      <point x="1235.5" y="-20.0" name="inserted"/>
      <point x="1115.5" y="64.0"/>
      <point x="1089" y="148" type="qcurve"/>
      <point x="1035" y="63"/>
      <point x="896" y="-20"/>
      <point x="822" y="-20" type="qcurve" smooth="yes"/>
      <point x="680" y="-20"/>
      <point x="534" y="212"/>
      <point x="553" y="417" type="qcurve" smooth="yes"/>
      <point x="568" y="582"/>
      <point x="689" y="841"/>
      <point x="784.5" y="915.0" type="qcurve" smooth="yes" name="inserted"/>
      <point x="832.25" y="952.0" name="inserted"/>
      <point x="932.5" y="989.0"/>
      <point x="985" y="989" type="qcurve" smooth="yes"/>
      <point x="1066" y="989"/>
      <point x="1194" y="946"/>
      <point x="1274" y="883" type="qcurve"/>
      <point x="1222" y="329" type="line" smooth="yes"/>
      <point x="1212.5" y="213.5" name="inserted"/>
      <point x="1276.5" y="98.0"/>
      <point x="1350" y="98" type="qcurve" smooth="yes"/>
      <point x="1463" y="98"/>
      <point x="1603" y="322"/>
      <point x="1609" y="502" type="qcurve" smooth="yes"/>
      <point x="1628" y="891"/>
      <point x="1301" y="1299"/>
      <point x="967" y="1299" type="qcurve" smooth="yes"/>
      <point x="766" y="1299"/>
      <point x="454" y="1100"/>
      <point x="364.0" y="912.0" type="qcurve" smooth="yes" name="inserted"/>
      <point x="319.0" y="818.0" name="inserted"/>
      <point x="268.5" y="601.0"/>
      <point x="263" y="478" type="qcurve" smooth="yes"/>
      <point x="251" y="230"/>
      <point x="395" y="-135"/>
      <point x="542.5" y="-231.5" type="qcurve" smooth="yes" name="inserted"/>
      <point x="616.25" y="-279.75" name="inserted"/>
      <point x="794.5" y="-328.0"/>
      <point x="899" y="-328" type="qcurve" smooth="yes"/>
      <point x="989" y="-328"/>
      <point x="1170" y="-284"/>
      <point x="1230" y="-249" type="qcurve"/>
      <point x="1267" y="-364" type="line"/>
      <point x="1205" y="-403"/>
      <point x="1000" y="-453"/>
      <point x="895" y="-453" type="qcurve" smooth="yes"/>
      <point x="645" y="-453"/>
      <point x="285" y="-228"/>
      <point x="195.5" y="-16.5" type="qcurve" smooth="yes" name="inserted"/>
      <point x="150.75" y="89.25" name="inserted"/>
      <point x="112.0" y="336.5"/>
      <point x="118" y="478" type="qcurve" smooth="yes"/>
      <point x="130" y="753"/>
      <point x="352" y="1192"/>
      <point x="542.0" y="1311.5" type="qcurve" smooth="yes" name="inserted"/>
      <point x="637.0" y="1371.25" name="inserted"/>
      <point x="851.5" y="1431.0"/>
      <point x="971" y="1431" type="qcurve" smooth="yes"/>
      <point x="1220" y="1431"/>
      <point x="1576" y="1207"/>
      <point x="1663.0" y="996.0" type="qcurve" smooth="yes" name="inserted"/>
      <point x="1706.5" y="890.5" name="inserted"/>
      <point x="1744.0" y="643.5"/>
    </contour>
    <contour>
      <point x="712" y="417" type="qcurve" smooth="yes"/>
      <point x="698" y="275"/>
      <point x="779" y="123"/>
      <point x="867" y="123" type="qcurve" smooth="yes"/>
      <point x="927" y="123"/>
      <point x="1038" y="225"/>
      <point x="1074" y="320" type="qcurve"/>
      <point x="1075" y="329" type="line"/>
      <point x="1121" y="832" type="line"/>
      <point x="1093.0" y="846.5" name="inserted"/>
      <point x="1033.0" y="861.0"/>
      <point x="1001" y="861" type="qcurve" smooth="yes"/>
      <point x="884" y="861"/>
      <point x="731" y="623"/>
    </contour>
  </outline>
</glyph>
<glyph name="I" format="2">
  <advance width="557"/>
  <unicode hex="0049"/>
  <outline>
    <contour>
      <point x="375" y="0" type="line"/>
      <point x="183" y="0" type="line"/>
      <point x="183" y="1456" type="line"/>
      <point x="375" y="1456" type="line"/>
    </contour>
  </outline>
</glyph>
<glyph name="N" format="2">
  <advance width="1460"/>
  <unicode hex="004E"/>
  <outline>
    <contour>
      <point x="1288" y="0" type="line"/>
      <point x="1095" y="0" type="line"/>
      <point x="362" y="1122" type="line"/>
      <point x="362" y="0" type="line"/>
      <point x="169" y="0" type="line"/>
      <point x="169" y="1456" type="line"/>
      <point x="362" y="1456" type="line"/>
      <point x="1097" y="329" type="line"/>
      <point x="1097" y="1456" type="line"/>
      <point x="1288" y="1456" type="line"/>
    </contour>
  </outline>
</glyph>
<glyph name="n" format="2">
  <advance width="1130"/>
  <unicode hex="006E"/>
  <outline>
    <contour>
      <point x="315" y="1082" type="line"/>
      <point x="321" y="946" type="line"/>
      <point x="383.0" y="1024.0" name="inserted"/>
      <point x="545.0" y="1102.0"/>
      <point x="645" y="1102" type="qcurve" smooth="yes"/>
      <point x="816.5" y="1102.0" name="inserted"/>
      <point x="989.5" y="908.5"/>
      <point x="991" y="715" type="qcurve" smooth="yes"/>
      <point x="991" y="0" type="line"/>
      <point x="806" y="0" type="line"/>
      <point x="806" y="716" type="line" smooth="yes"/>
      <point x="805" y="833"/>
      <point x="700" y="945"/>
      <point x="589" y="945" type="qcurve" smooth="yes"/>
      <point x="499" y="945"/>
      <point x="363" y="849"/>
      <point x="325" y="771" type="qcurve"/>
      <point x="325" y="0" type="line"/>
      <point x="140" y="0" type="line"/>
      <point x="140" y="1082" type="line"/>
    </contour>
  </outline>
</glyph>
<glyph name="q" format="2">
  <advance width="1164"/>
  <unicode hex="0071"/>
  <outline>
    <contour>
      <point x="95" y="550" type="line" smooth="yes"/>
      <point x="95" y="805"/>
      <point x="329" y="1102"/>
      <point x="526" y="1102" type="qcurve" smooth="yes"/>
      <point x="622.0" y="1102.0" name="inserted"/>
      <point x="773.5" y="1037.5"/>
      <point x="829" y="973" type="qcurve"/>
      <point x="837" y="1082" type="line"/>
      <point x="1007" y="1082" type="line"/>
      <point x="1007" y="-416" type="line"/>
      <point x="822" y="-416" type="line"/>
      <point x="822" y="100" type="line"/>
      <point x="766.0" y="40.0" name="inserted"/>
      <point x="617.0" y="-20.0"/>
      <point x="524" y="-20" type="qcurve" smooth="yes"/>
      <point x="328" y="-20"/>
      <point x="95" y="285"/>
      <point x="95" y="537" type="qcurve" smooth="yes"/>
    </contour>
    <contour>
      <point x="280" y="529" type="qcurve" smooth="yes"/>
      <point x="280" y="343"/>
      <point x="437" y="131"/>
      <point x="570" y="131" type="qcurve" smooth="yes"/>
      <point x="652.5" y="131.0" name="inserted"/>
      <point x="778.5" y="204.0"/>
      <point x="822" y="277" type="qcurve"/>
      <point x="822" y="807" type="line"/>
      <point x="778.0" y="878.5" name="inserted"/>
      <point x="653.0" y="950.0"/>
      <point x="572" y="950" type="qcurve" smooth="yes"/>
      <point x="438" y="950"/>
      <point x="280" y="737"/>
    </contour>
  </outline>
</glyph>
<glyph name="braceleft" format="2">
  <advance width="693"/>
  <unicode hex="007B"/>
  <outline>
    <contour>
      <point x="632" y="-366" type="line"/>
      <point x="455" y="-316"/>
      <point x="276" y="-87"/>
      <point x="276" y="101" type="qcurve" smooth="yes"/>
      <point x="276" y="300" type="line" smooth="yes"/>
      <point x="276.0" y="421.5" name="inserted"/>
      <point x="170.0" y="543.0"/>
      <point x="64" y="543" type="qcurve"/>
      <point x="64" y="688" type="line"/>
      <point x="170.0" y="688.0" name="inserted"/>
      <point x="276.0" y="809.0"/>
      <point x="276" y="930" type="qcurve" smooth="yes"/>
      <point x="276" y="1138" type="line" smooth="yes"/>
      <point x="278" y="1321"/>
      <point x="453" y="1546"/>
      <point x="632" y="1597" type="qcurve"/>
      <point x="670" y="1482" type="line"/>
      <point x="565.5" y="1448.5" name="inserted"/>
      <point x="461.0" y="1274.0"/>
      <point x="461" y="1133" type="qcurve" smooth="yes"/>
      <point x="461" y="931" type="line" smooth="yes"/>
      <point x="461.0" y="817.5" name="inserted"/>
      <point x="377.5" y="659.5"/>
      <point x="294" y="615" type="qcurve"/>
      <point x="377.5" y="570.0" name="inserted"/>
      <point x="461.0" y="410.5"/>
      <point x="461" y="296" type="qcurve" smooth="yes"/>
      <point x="461" y="90" type="line" smooth="yes"/>
      <point x="462.5" y="-47.5" name="inserted"/>
      <point x="567.0" y="-218.0"/>
      <point x="670" y="-251" type="qcurve"/>
    </contour>
  </outline>
</glyph>
<glyph name="braceright" format="2">
  <advance width="693"/>
  <unicode hex="007D"/>
  <outline>
    <contour>
      <point x="19" y="-251" type="line"/>
      <point x="120.5" y="-218.5" name="inserted"/>
      <point x="225.5" y="-53.0"/>
      <point x="229" y="80" type="qcurve" smooth="yes"/>
      <point x="229" y="300" type="line" smooth="yes"/>
      <point x="229.0" y="415.5" name="inserted"/>
      <point x="319.5" y="573.0"/>
      <point x="410" y="615" type="qcurve"/>
      <point x="319.5" y="656.0" name="inserted"/>
      <point x="229.0" y="813.5"/>
      <point x="229" y="930" type="qcurve" smooth="yes"/>
      <point x="229" y="1133" type="line" smooth="yes"/>
      <point x="229.0" y="1274.0" name="inserted"/>
      <point x="124.5" y="1448.5"/>
      <point x="20" y="1482" type="qcurve"/>
      <point x="58" y="1597" type="line"/>
      <point x="235" y="1547"/>
      <point x="413" y="1322"/>
      <point x="414" y="1137" type="qcurve" smooth="yes"/>
      <point x="414" y="927" type="line" smooth="yes"/>
      <point x="414.0" y="807.5" name="inserted"/>
      <point x="520.0" y="688.0"/>
      <point x="626" y="688" type="qcurve"/>
      <point x="626" y="543" type="line"/>
      <point x="520.0" y="543.0" name="inserted"/>
      <point x="414.0" y="421.5"/>
      <point x="414" y="300" type="qcurve" smooth="yes"/>
      <point x="414" y="98" type="line" smooth="yes"/>
      <point x="414" y="-90"/>
      <point x="233" y="-316"/>
      <point x="58" y="-366" type="qcurve"/>
    </contour>
  </outline>
</glyph>
<glyph name="brokenbar" format="2">
  <advance width="491"/>
  <unicode hex="00A6"/>
  <outline>
    <contour>
      <point x="147" y="-270" type="line"/>
      <point x="147" y="521" type="line"/>
      <point x="333" y="521" type="line"/>
      <point x="333" y="-270" type="line"/>
    </contour>
    <contour>
      <point x="333" y="698" type="line"/>
      <point x="147" y="698" type="line"/>
      <point x="147" y="1456" type="line"/>
      <point x="333" y="1456" type="line"/>
    </contour>
  </outline>
</glyph>
<glyph name="dieresis" format="2">
  <advance width="856"/>
  <unicode hex="00A8"/>
  <outline>
    <contour>
      <point x="101" y="1371" type="qcurve" smooth="yes"/>
      <point x="101" y="1416"/>
      <point x="156" y="1477"/>
      <point x="210.0" y="1477.0" type="qcurve" smooth="yes" name="inserted"/>
      <point x="264" y="1477"/>
      <point x="320" y="1416"/>
      <point x="320.0" y="1371.0" type="qcurve" smooth="yes" name="inserted"/>
      <point x="320" y="1326"/>
      <point x="264" y="1266"/>
      <point x="210.0" y="1266.0" type="qcurve" smooth="yes" name="inserted"/>
      <point x="156" y="1266"/>
      <point x="101" y="1326"/>
    </contour>
    <contour>
      <point x="531" y="1369" type="qcurve" smooth="yes"/>
      <point x="531" y="1414"/>
      <point x="586" y="1476"/>
      <point x="640.0" y="1476.0" type="qcurve" smooth="yes" name="inserted"/>
      <point x="694" y="1476"/>
      <point x="750" y="1414"/>
      <point x="750.0" y="1369.0" type="qcurve" smooth="yes" name="inserted"/>
      <point x="750" y="1324"/>
      <point x="694" y="1264"/>
      <point x="640.0" y="1264.0" type="qcurve" smooth="yes" name="inserted"/>
      <point x="586" y="1264"/>
      <point x="531" y="1324"/>
    </contour>
  </outline>
</glyph>
<glyph name="ordfeminine" format="2">
  <advance width="915"/>
  <unicode hex="00AA"/>
  <outline>
    <contour>
      <point x="618" y="705" type="line"/>
      <point x="612.0" y="722.0" name="inserted"/>
      <point x="603.0" y="758.0"/>
      <point x="600" y="777" type="qcurve"/>
      <point x="562.0" y="734.0" name="inserted"/>
      <point x="460.0" y="691.0"/>
      <point x="396" y="691" type="qcurve" smooth="yes"/>
      <point x="277" y="691"/>
      <point x="147" y="815"/>
      <point x="147" y="918" type="qcurve" smooth="yes"/>
      <point x="147" y="1029"/>
      <point x="314" y="1149"/>
      <point x="486" y="1149" type="qcurve" smooth="yes"/>
      <point x="594" y="1149" type="line"/>
      <point x="594" y="1201" type="line" smooth="yes"/>
      <point x="594.0" y="1268.5" name="inserted"/>
      <point x="532.0" y="1336.0"/>
      <point x="470" y="1336" type="qcurve" smooth="yes"/>
      <point x="401" y="1336"/>
      <point x="322" y="1282"/>
      <point x="322" y="1231" type="qcurve"/>
      <point x="161" y="1243" type="line"/>
      <point x="161" y="1346"/>
      <point x="333" y="1476"/>
      <point x="470" y="1476" type="qcurve" smooth="yes"/>
      <point x="603" y="1476"/>
      <point x="757" y="1333"/>
      <point x="757" y="1199" type="qcurve" smooth="yes"/>
      <point x="757" y="883" type="line" smooth="yes"/>
      <point x="757.0" y="834.5" name="inserted"/>
      <point x="770.0" y="745.5"/>
      <point x="783" y="705" type="qcurve"/>
    </contour>
    <contour>
      <point x="435" y="828" type="qcurve" smooth="yes"/>
      <point x="478" y="828"/>
      <point x="566" y="868"/>
      <point x="594" y="895" type="qcurve"/>
      <point x="594" y="1037" type="line"/>
      <point x="482" y="1037" type="line" smooth="yes"/>
      <point x="399" y="1036"/>
      <point x="310" y="973"/>
      <point x="310" y="922" type="qcurve" smooth="yes"/>
      <point x="310.0" y="875.0" name="inserted"/>
      <point x="372.5" y="828.0"/>
    </contour>
  </outline>
</glyph>
<glyph name="registered" format="2">
  <advance width="1610"/>
  <unicode hex="00AE"/>
  <outline>
    <contour>
      <point x="90" y="729" type="qcurve" smooth="yes"/>
      <point x="90" y="931"/>
      <point x="277" y="1277"/>
      <point x="442.5" y="1376.5" type="qcurve" smooth="yes" name="inserted"/>
      <point x="608" y="1476"/>
      <point x="992" y="1476"/>
      <point x="1157.0" y="1376.5" type="qcurve" smooth="yes" name="inserted"/>
      <point x="1322" y="1277"/>
      <point x="1509" y="931"/>
      <point x="1509" y="729" type="qcurve" smooth="yes"/>
      <point x="1509" y="532"/>
      <point x="1329" y="188"/>
      <point x="1163.5" y="83.5" type="qcurve" smooth="yes" name="inserted"/>
      <point x="1080.75" y="31.25" name="inserted"/>
      <point x="899.0" y="-21.0"/>
      <point x="800" y="-21" type="qcurve" smooth="yes"/>
      <point x="603" y="-21"/>
      <point x="272" y="186"/>
      <point x="181.0" y="358.0" type="qcurve" smooth="yes" name="inserted"/>
      <point x="135.5" y="444.0" name="inserted"/>
      <point x="90.0" y="629.5"/>
    </contour>
    <contour>
      <point x="205" y="729" type="qcurve" smooth="yes"/>
      <point x="205" y="557"/>
      <point x="365" y="264"/>
      <point x="502.5" y="181.0" type="qcurve" smooth="yes" name="inserted"/>
      <point x="571.25" y="139.5" name="inserted"/>
      <point x="720.0" y="98.0"/>
      <point x="800" y="98" type="qcurve" smooth="yes"/>
      <point x="961" y="98"/>
      <point x="1237" y="267"/>
      <point x="1315.5" y="412.0" type="qcurve" smooth="yes" name="inserted"/>
      <point x="1354.75" y="484.5" name="inserted"/>
      <point x="1394.0" y="643.0"/>
      <point x="1394" y="729" type="qcurve" smooth="yes"/>
      <point x="1394" y="900"/>
      <point x="1237" y="1189"/>
      <point x="1099.0" y="1272.5" type="qcurve" smooth="yes" name="inserted"/>
      <point x="1030.0" y="1314.25" name="inserted"/>
      <point x="880.5" y="1356.0"/>
      <point x="800" y="1356" type="qcurve" smooth="yes"/>
      <point x="640" y="1356"/>
      <point x="364" y="1191"/>
      <point x="284.5" y="1045.0" type="qcurve" smooth="yes" name="inserted"/>
      <point x="244.75" y="972.0" name="inserted"/>
      <point x="205.0" y="814.0"/>
    </contour>
    <contour>
      <point x="653" y="654" type="line"/>
      <point x="653" y="316" type="line"/>
      <point x="512" y="316" type="line"/>
      <point x="512" y="1165" type="line"/>
      <point x="788" y="1165" type="line" smooth="yes"/>
      <point x="941" y="1165"/>
      <point x="1110" y="1034"/>
      <point x="1110" y="909" type="qcurve" smooth="yes"/>
      <point x="1110.0" y="847.5" name="inserted"/>
      <point x="1046.0" y="753.5"/>
      <point x="982" y="721" type="qcurve"/>
      <point x="1043.0" y="696.0" name="inserted"/>
      <point x="1104.5" y="594.0"/>
      <point x="1105" y="517" type="qcurve" smooth="yes"/>
      <point x="1105" y="456" type="line" smooth="yes"/>
      <point x="1105.0" y="413.0" name="inserted"/>
      <point x="1113.5" y="351.0"/>
      <point x="1122" y="332" type="qcurve"/>
      <point x="1122" y="316" type="line"/>
      <point x="977" y="316" type="line"/>
      <point x="963" y="352"/>
      <point x="963" y="537"/>
      <point x="960" y="554" type="qcurve" smooth="yes"/>
      <point x="952.0" y="602.0" name="inserted"/>
      <point x="886.5" y="652.0"/>
      <point x="829" y="654" type="qcurve" smooth="yes"/>
    </contour>
    <contour>
      <point x="653" y="782" type="line"/>
      <point x="809" y="782" type="line" smooth="yes"/>
      <point x="881" y="784"/>
      <point x="969" y="850"/>
      <point x="969" y="904" type="qcurve" smooth="yes"/>
      <point x="969" y="977"/>
      <point x="891" y="1038"/>
      <point x="791" y="1038" type="qcurve" smooth="yes"/>
      <point x="653" y="1038" type="line"/>
    </contour>
  </outline>
</glyph>
<glyph name="questiondown" format="2">
  <advance width="969"/>
  <unicode hex="00BF"/>
  <outline>
    <contour>
      <point x="588" y="680" type="line"/>
      <point x="587" y="574"/>
      <point x="546" y="447"/>
      <point x="498.0" y="388.0" type="qcurve" smooth="yes" name="inserted"/>
      <point x="450" y="329"/>
      <point x="266" y="136"/>
      <point x="255" y="37" type="qcurve"/>
      <point x="253" y="0" type="line"/>
      <point x="253" y="-109"/>
      <point x="369" y="-224"/>
      <point x="478" y="-224" type="qcurve" smooth="yes"/>
      <point x="578" y="-224"/>
      <point x="703" y="-111"/>
      <point x="703" y="-20" type="qcurve"/>
      <point x="888" y="-20" type="line"/>
      <point x="886" y="-181"/>
      <point x="661" y="-385"/>
      <point x="478" y="-385" type="qcurve" smooth="yes"/>
      <point x="282" y="-385"/>
      <point x="68" y="-184"/>
      <point x="68" y="-5" type="qcurve" smooth="yes"/>
      <point x="68.0" y="81.5" name="inserted"/>
      <point x="148.0" y="255.5"/>
      <point x="228" y="343" type="qcurve" smooth="yes"/>
      <point x="337" y="456" type="line"/>
      <point x="370.0" y="495.0" name="inserted"/>
      <point x="403.0" y="607.0"/>
      <point x="403" y="680" type="qcurve"/>
    </contour>
    <contour>
      <point x="596" y="997" type="qcurve" smooth="yes"/>
      <point x="596" y="952"/>
      <point x="541" y="890"/>
      <point x="487.0" y="890.0" type="qcurve" smooth="yes" name="inserted"/>
      <point x="433" y="890"/>
      <point x="377" y="952"/>
      <point x="377" y="997" type="qcurve" smooth="yes"/>
      <point x="377" y="1041"/>
      <point x="433" y="1101"/>
      <point x="487.0" y="1101.0" type="qcurve" smooth="yes" name="inserted"/>
      <point x="541" y="1101"/>
      <point x="596" y="1041"/>
    </contour>
  </outline>
</glyph>
<glyph name="Eth" format="2">
  <advance width="1373"/>
  <unicode hex="00D0"/>
  <outline>
    <contour>
      <point x="199" y="0" type="line"/>
      <point x="199" y="666" type="line"/>
      <point x="7" y="666" type="line"/>
      <point x="7" y="817" type="line"/>
      <point x="199" y="817" type="line"/>
      <point x="199" y="1456" type="line"/>
      <point x="610" y="1456" type="line" smooth="yes"/>
      <point x="800" y="1456"/>
      <point x="1092" y="1288"/>
      <point x="1171.5" y="1133.0" type="qcurve" smooth="yes" name="inserted"/>
      <point x="1211.25" y="1055.5" name="inserted"/>
      <point x="1251.5" y="877.5"/>
      <point x="1252" y="777" type="qcurve" smooth="yes"/>
      <point x="1252" y="684" type="line" smooth="yes"/>
      <point x="1252" y="478"/>
      <point x="1093" y="168"/>
      <point x="945.5" y="85.0" type="qcurve" smooth="yes" name="inserted"/>
      <point x="871.75" y="43.5" name="inserted"/>
      <point x="700.0" y="1.0"/>
      <point x="602" y="0" type="qcurve" smooth="yes"/>
    </contour>
    <contour>
      <point x="643" y="666" type="line"/>
      <point x="391" y="666" type="line"/>
      <point x="391" y="157" type="line"/>
      <point x="592" y="157" type="line" smooth="yes"/>
      <point x="814" y="157"/>
      <point x="1061" y="431"/>
      <point x="1062" y="680" type="qcurve" smooth="yes"/>
      <point x="1062" y="773" type="line" smooth="yes"/>
      <point x="1062" y="1021"/>
      <point x="829" y="1296"/>
      <point x="615" y="1298" type="qcurve" smooth="yes"/>
      <point x="391" y="1298" type="line"/>
      <point x="391" y="817" type="line"/>
      <point x="643" y="817" type="line"/>
    </contour>
  </outline>
</glyph>
<glyph name="germandbls" format="2">
  <advance width="1218"/>
  <unicode hex="00DF"/>
  <outline>
    <contour>
      <point x="324" y="0" type="line"/>
      <point x="139" y="0" type="line"/>
      <point x="139" y="1111" type="line" smooth="yes"/>
      <point x="139" y="1319"/>
      <point x="346" y="1554"/>
      <point x="532" y="1554" type="qcurve" smooth="yes"/>
      <point x="712" y="1554"/>
      <point x="909" y="1375"/>
      <point x="909" y="1216" type="qcurve" smooth="yes"/>
      <point x="909" y="1091"/>
      <point x="781" y="888"/>
      <point x="781" y="819" type="qcurve" smooth="yes"/>
      <point x="781" y="768"/>
      <point x="856" y="673"/>
      <point x="950.0" y="601.0" type="qcurve" smooth="yes" name="inserted"/>
      <point x="1044" y="529"/>
      <point x="1130" y="393"/>
      <point x="1130" y="317" type="qcurve" smooth="yes"/>
      <point x="1130" y="158"/>
      <point x="927" y="-20"/>
      <point x="745" y="-20" type="qcurve" smooth="yes"/>
      <point x="664" y="-20"/>
      <point x="483" y="24"/>
      <point x="445" y="52" type="qcurve"/>
      <point x="488" y="207" type="line"/>
      <point x="537" y="175"/>
      <point x="672" y="131"/>
      <point x="725" y="131" type="qcurve" smooth="yes"/>
      <point x="832" y="131"/>
      <point x="945" y="225"/>
      <point x="945" y="307" type="qcurve" smooth="yes"/>
      <point x="945" y="359"/>
      <point x="871" y="455"/>
      <point x="776.5" y="528.5" type="qcurve" smooth="yes" name="inserted"/>
      <point x="682" y="602"/>
      <point x="595" y="740"/>
      <point x="595" y="821" type="qcurve" smooth="yes"/>
      <point x="595" y="910"/>
      <point x="734" y="1117"/>
      <point x="734" y="1201" type="qcurve" smooth="yes"/>
      <point x="734" y="1295"/>
      <point x="630" y="1402"/>
      <point x="542" y="1402" type="qcurve" smooth="yes"/>
      <point x="433.0" y="1402.0" name="inserted"/>
      <point x="324.0" y="1255.5"/>
      <point x="324" y="1109" type="qcurve" smooth="yes"/>
    </contour>
  </outline>
</glyph>
<glyph name="Aogonek" format="2">
  <advance width="1336"/>
  <unicode hex="0104"/>
  <outline>
    <contour>
      <point x="752" y="1456" type="line"/>
      <point x="1309" y="0" type="line"/>
      <point x="1271" y="0" type="line"/>
      <point x="1213" y="-45" type="line" smooth="yes"/>
      <point x="1156.5" y="-90.5" name="inserted"/>
      <point x="1100.0" y="-179.0"/>
      <point x="1100" y="-222" type="qcurve" smooth="yes"/>
      <point x="1100.0" y="-258.0" name="inserted"/>
      <point x="1139.0" y="-294.0"/>
      <point x="1178" y="-294" type="qcurve" smooth="yes"/>
      <point x="1202.0" y="-294.0" name="inserted"/>
      <point x="1252.0" y="-281.0"/>
      <point x="1278" y="-268" type="qcurve"/>
      <point x="1291" y="-389" type="line"/>
      <point x="1256.0" y="-411.0" name="inserted"/>
      <point x="1176.0" y="-433.0"/>
      <point x="1131" y="-433" type="qcurve" smooth="yes"/>
      <point x="1042" y="-433"/>
      <point x="939" y="-329"/>
      <point x="939" y="-243" type="qcurve" smooth="yes"/>
      <point x="939.0" y="-171.0" name="inserted"/>
      <point x="1023.5" y="-45.0"/>
      <point x="1108" y="9" type="qcurve"/>
      <point x="973" y="380" type="line"/>
      <point x="363" y="380" type="line"/>
      <point x="226" y="0" type="line"/>
      <point x="28" y="0" type="line"/>
      <point x="584" y="1456" type="line"/>
    </contour>
    <contour>
      <point x="421" y="538" type="line"/>
      <point x="916" y="538" type="line"/>
      <point x="668" y="1219" type="line"/>
    </contour>
  </outline>
</glyph>
<glyph name="eogonek" format="2">
  <advance width="1085"/>
  <unicode hex="0119"/>
  <outline>
    <contour>
      <point x="997" y="189" type="line"/>
      <point x="961.5" y="134.0" name="inserted"/>
      <point x="868.5" y="52.0"/>
      <point x="811" y="25" type="qcurve"/>
      <point x="812" y="25" type="line"/>
      <point x="754" y="-20" type="line" smooth="yes"/>
      <point x="697.5" y="-65.5" name="inserted"/>
      <point x="641.0" y="-154.0"/>
      <point x="641" y="-197" type="qcurve" smooth="yes"/>
      <point x="641.0" y="-233.0" name="inserted"/>
      <point x="680.0" y="-269.0"/>
      <point x="719" y="-269" type="qcurve" smooth="yes"/>
      <point x="743.0" y="-269.0" name="inserted"/>
      <point x="793.0" y="-256.0"/>
      <point x="819" y="-243" type="qcurve"/>
      <point x="832" y="-364" type="line"/>
      <point x="797.0" y="-386.0" name="inserted"/>
      <point x="717.0" y="-408.0"/>
      <point x="672" y="-408" type="qcurve" smooth="yes"/>
      <point x="583" y="-408"/>
      <point x="480" y="-304"/>
      <point x="480" y="-218" type="qcurve" smooth="yes"/>
      <point x="480.0" y="-164.0" name="inserted"/>
      <point x="529.0" y="-65.0"/>
      <point x="578" y="-20" type="qcurve"/>
      <point x="360" y="-16"/>
      <point x="93" y="273"/>
      <point x="93" y="512" type="qcurve" smooth="yes"/>
      <point x="93" y="545" type="line" smooth="yes"/>
      <point x="93" y="706"/>
      <point x="216" y="959"/>
      <point x="326.5" y="1030.5" type="qcurve" smooth="yes" name="inserted"/>
      <point x="381.75" y="1066.25" name="inserted"/>
      <point x="501.5" y="1102.0"/>
      <point x="566" y="1102" type="qcurve" smooth="yes"/>
      <point x="777" y="1102"/>
      <point x="1011" y="824"/>
      <point x="1011" y="565" type="qcurve" smooth="yes"/>
      <point x="1011" y="488" type="line"/>
      <point x="278" y="488" type="line"/>
      <point x="282" y="328"/>
      <point x="461" y="131"/>
      <point x="599" y="131" type="qcurve" smooth="yes"/>
      <point x="697" y="131"/>
      <point x="833" y="211"/>
      <point x="884" y="277" type="qcurve"/>
    </contour>
    <contour>
      <point x="566" y="950" type="qcurve" smooth="yes"/>
      <point x="454" y="950"/>
      <point x="302" y="787"/>
      <point x="284" y="640" type="qcurve"/>
      <point x="826" y="640" type="line"/>
      <point x="826" y="654" type="line"/>
      <point x="818" y="795"/>
      <point x="682" y="950"/>
    </contour>
  </outline>
</glyph>
<glyph name="uni018F" format="2">
  <advance width="1415"/>
  <unicode hex="018F"/>
  <outline>
    <contour>
      <point x="697" y="-20" type="qcurve" smooth="yes"/>
      <point x="412" y="-20"/>
      <point x="93" y="325"/>
      <point x="93" y="650" type="qcurve" smooth="yes"/>
      <point x="93" y="767" type="line"/>
      <point x="1105" y="767" type="line"/>
      <point x="1105" y="774" type="line" smooth="yes"/>
      <point x="1105" y="1032"/>
      <point x="861" y="1316"/>
      <point x="640" y="1316" type="qcurve" smooth="yes"/>
      <point x="557.5" y="1316.0" name="inserted"/>
      <point x="405.5" y="1287.0"/>
      <point x="336" y="1258" type="qcurve" smooth="yes"/>
      <point x="275" y="1232" type="line"/>
      <point x="228" y="1375" type="line"/>
      <point x="250" y="1388" type="line" smooth="yes"/>
      <point x="329.0" y="1432.0" name="inserted"/>
      <point x="524.0" y="1476.0"/>
      <point x="640" y="1476" type="qcurve" smooth="yes"/>
      <point x="942" y="1476"/>
      <point x="1298" y="1099"/>
      <point x="1298" y="764" type="qcurve" smooth="yes"/>
      <point x="1298" y="680" type="line" smooth="yes"/>
      <point x="1298" y="483"/>
      <point x="1142" y="162"/>
      <point x="1003.0" y="71.0" type="qcurve" smooth="yes" name="inserted"/>
      <point x="933.5" y="25.5" name="inserted"/>
      <point x="780.5" y="-20.0"/>
    </contour>
    <contour>
      <point x="697" y="138" type="qcurve" smooth="yes"/>
      <point x="866" y="138"/>
      <point x="1088" y="399"/>
      <point x="1103" y="618" type="qcurve"/>
      <point x="286" y="618" type="line"/>
      <point x="286" y="584" type="line" smooth="yes"/>
      <point x="286" y="366"/>
      <point x="497" y="138"/>
    </contour>
  </outline>
</glyph>
<glyph name="Ohorn" format="2">
  <advance width="1406"/>
  <unicode hex="01A0"/>
  <outline>
    <contour>
      <point x="1272" y="681" type="line" smooth="yes"/>
      <point x="1272" y="467"/>
      <point x="1128" y="148"/>
      <point x="996.0" y="64.0" type="qcurve" smooth="yes" name="inserted"/>
      <point x="930.0" y="22.0" name="inserted"/>
      <point x="776.0" y="-20.0"/>
      <point x="688" y="-20" type="qcurve" smooth="yes"/>
      <point x="517" y="-20"/>
      <point x="251" y="148"/>
      <point x="176.5" y="307.0" type="qcurve" smooth="yes" name="inserted"/>
      <point x="139.25" y="386.5" name="inserted"/>
      <point x="101.5" y="569.5"/>
      <point x="101" y="673" type="qcurve" smooth="yes"/>
      <point x="101" y="773" type="line" smooth="yes"/>
      <point x="101" y="983"/>
      <point x="247" y="1304"/>
      <point x="380.5" y="1390.0" type="qcurve" smooth="yes" name="inserted"/>
      <point x="447.25" y="1433.0" name="inserted"/>
      <point x="600.0" y="1476.0"/>
      <point x="686" y="1476" type="qcurve" smooth="yes"/>
      <point x="806.0" y="1476.0" name="inserted"/>
      <point x="1003.5" y="1398.5"/>
      <point x="1081" y="1321" type="qcurve"/>
      <point x="1177" y="1328"/>
      <point x="1270" y="1459"/>
      <point x="1270" y="1591" type="qcurve"/>
      <point x="1437" y="1591" type="line"/>
      <point x="1437.0" y="1424.5" name="inserted"/>
      <point x="1305.5" y="1227.5"/>
      <point x="1174" y="1197" type="qcurve"/>
      <point x="1222.5" y="1111.0" name="inserted"/>
      <point x="1271.5" y="902.0"/>
      <point x="1272" y="779" type="qcurve" smooth="yes"/>
    </contour>
    <contour>
      <point x="1082" y="775" type="line" smooth="yes"/>
      <point x="1082" y="1033"/>
      <point x="875" y="1311"/>
      <point x="686" y="1311" type="qcurve" smooth="yes"/>
      <point x="504" y="1311"/>
      <point x="295" y="1034"/>
      <point x="292" y="788" type="qcurve"/>
      <point x="292" y="681" type="line" smooth="yes"/>
      <point x="292" y="430"/>
      <point x="503" y="143"/>
      <point x="688" y="143" type="qcurve" smooth="yes"/>
      <point x="879" y="143"/>
      <point x="1082" y="425"/>
      <point x="1082" y="682" type="qcurve" smooth="yes"/>
    </contour>
  </outline>
</glyph>
<glyph name="ohorn" format="2">
  <advance width="1170"/>
  <unicode hex="01A1"/>
  <outline>
    <contour>
      <point x="91" y="551" type="line" smooth="yes"/>
      <point x="91" y="710"/>
      <point x="214" y="963"/>
      <point x="326.5" y="1032.5" type="qcurve" smooth="yes" name="inserted"/>
      <point x="382.75" y="1067.25" name="inserted"/>
      <point x="510.5" y="1102.0"/>
      <point x="582" y="1102" type="qcurve" smooth="yes"/>
      <point x="685.5" y="1102.0" name="inserted"/>
      <point x="857.0" y="1033.0"/>
      <point x="925" y="964" type="qcurve"/>
      <point x="996" y="972"/>
      <point x="1060" y="1072"/>
      <point x="1060" y="1200" type="qcurve"/>
      <point x="1210" y="1200" type="line"/>
      <point x="1210.0" y="1054.5" name="inserted"/>
      <point x="1106.5" y="883.5"/>
      <point x="1003" y="858" type="qcurve"/>
      <point x="1039.5" y="789.0" name="inserted"/>
      <point x="1076.0" y="635.5"/>
      <point x="1076" y="551" type="qcurve" smooth="yes"/>
      <point x="1076" y="529" type="line" smooth="yes"/>
      <point x="1076" y="371"/>
      <point x="952" y="117"/>
      <point x="840.0" y="48.5" type="qcurve" smooth="yes" name="inserted"/>
      <point x="784.0" y="14.25" name="inserted"/>
      <point x="656.0" y="-20.0"/>
      <point x="584" y="-20" type="qcurve" smooth="yes"/>
      <point x="362" y="-20"/>
      <point x="91" y="287"/>
      <point x="91" y="538" type="qcurve" smooth="yes"/>
    </contour>
    <contour>
      <point x="276" y="529" type="qcurve" smooth="yes"/>
      <point x="276" y="349"/>
      <point x="443" y="131"/>
      <point x="584" y="131" type="qcurve" smooth="yes"/>
      <point x="723" y="131"/>
      <point x="890" y="350"/>
      <point x="890" y="535" type="qcurve" smooth="yes"/>
      <point x="890" y="551" type="line" smooth="yes"/>
      <point x="890" y="732"/>
      <point x="721" y="950"/>
      <point x="582" y="950" type="qcurve" smooth="yes"/>
      <point x="444" y="950"/>
      <point x="276" y="732"/>
    </contour>
  </outline>
</glyph>
<glyph name="Uhorn" format="2">
  <advance width="1424"/>
  <unicode hex="01AF"/>
  <outline>
    <contour>
      <point x="1194" y="1456" type="line"/>
      <point x="1194" y="1243" type="line"/>
      <point x="1309" y="1254"/>
      <point x="1406" y="1391"/>
      <point x="1406" y="1538" type="qcurve"/>
      <point x="1565" y="1538" type="line"/>
      <point x="1565" y="1328"/>
      <point x="1388" y="1119"/>
      <point x="1194" y="1107" type="qcurve"/>
      <point x="1194" y="465" type="line"/>
      <point x="1193" y="266"/>
      <point x="949" y="6"/>
      <point x="738" y="-16" type="qcurve" smooth="yes"/>
      <point x="665" y="-20" type="line"/>
      <point x="426" y="-20"/>
      <point x="142" y="238"/>
      <point x="140" y="464" type="qcurve" smooth="yes"/>
      <point x="140" y="1456" type="line"/>
      <point x="330" y="1456" type="line"/>
      <point x="330" y="470" type="line" smooth="yes"/>
      <point x="330" y="312"/>
      <point x="504" y="137"/>
      <point x="665" y="137" type="qcurve" smooth="yes"/>
      <point x="828" y="137"/>
      <point x="1001" y="311"/>
      <point x="1001" y="469" type="qcurve" smooth="yes"/>
      <point x="1001" y="1456" type="line"/>
    </contour>
  </outline>
</glyph>
<glyph name="circumflex" format="2">
  <advance width="964"/>
  <unicode hex="02C6"/>
  <outline>
    <contour>
      <point x="774" y="1262" type="line"/>
      <point x="774" y="1252" type="line"/>
      <point x="621" y="1252" type="line"/>
      <point x="471" y="1422" type="line"/>
      <point x="322" y="1252" type="line"/>
      <point x="169" y="1252" type="line"/>
      <point x="169" y="1264" type="line"/>
      <point x="415" y="1536" type="line"/>
      <point x="527" y="1536" type="line"/>
    </contour>
  </outline>
</glyph>
<glyph name="dotaccent" format="2">
  <advance width="497"/>
  <unicode hex="02D9"/>
  <outline>
    <contour>
      <point x="141" y="1367" type="qcurve" smooth="yes"/>
      <point x="141" y="1412"/>
      <point x="196" y="1474"/>
      <point x="250.0" y="1474.0" type="qcurve" smooth="yes" name="inserted"/>
      <point x="304" y="1474"/>
      <point x="360" y="1412"/>
      <point x="360.0" y="1367.0" type="qcurve" smooth="yes" name="inserted"/>
      <point x="360" y="1322"/>
      <point x="304" y="1262"/>
      <point x="250.0" y="1262.0" type="qcurve" smooth="yes" name="inserted"/>
      <point x="196" y="1262"/>
      <point x="141" y="1322"/>
    </contour>
  </outline>
</glyph>
<glyph name="tilde" format="2">
  <advance width="966"/>
  <unicode hex="02DC"/>
  <outline>
    <contour>
      <point x="830" y="1500" type="line"/>
      <point x="830" y="1392"/>
      <point x="707" y="1258"/>
      <point x="615" y="1258" type="qcurve" smooth="yes"/>
      <point x="574" y="1258"/>
      <point x="514" y="1278"/>
      <point x="465.5" y="1309.0" type="qcurve" smooth="yes" name="inserted"/>
      <point x="417" y="1340"/>
      <point x="374" y="1353"/>
      <point x="346" y="1353" type="qcurve" smooth="yes"/>
      <point x="305" y="1353"/>
      <point x="247" y="1290"/>
      <point x="247" y="1241" type="qcurve"/>
      <point x="123" y="1248" type="line"/>
      <point x="123" y="1355"/>
      <point x="244" y="1495"/>
      <point x="337" y="1495" type="qcurve" smooth="yes"/>
      <point x="372" y="1495"/>
      <point x="428" y="1475"/>
      <point x="476.0" y="1446.0" type="qcurve" smooth="yes" name="inserted"/>
      <point x="524" y="1417"/>
      <point x="575" y="1399"/>
      <point x="606" y="1399" type="qcurve" smooth="yes"/>
      <point x="649" y="1399"/>
      <point x="706" y="1467"/>
      <point x="706" y="1512" type="qcurve"/>
    </contour>
  </outline>
</glyph>
<glyph name="hungarumlaut" format="2">
  <advance width="764"/>
  <unicode hex="02DD"/>
  <outline>
    <contour>
      <point x="605" y="1535" type="line"/>
      <point x="812" y="1535" type="line"/>
      <point x="543" y="1232" type="line"/>
      <point x="374" y="1232" type="line"/>
    </contour>
    <contour>
      <point x="265" y="1535" type="line"/>
      <point x="462" y="1535" type="line"/>
      <point x="244" y="1232" type="line"/>
      <point x="94" y="1232" type="line"/>
    </contour>
  </outline>
</glyph>
<glyph name="dotbelowcomb" format="2">
  <unicode hex="0323"/>
  <outline>
    <contour>
      <point x="-712" y="-245" type="qcurve" smooth="yes"/>
      <point x="-712" y="-200"/>
      <point x="-657" y="-138"/>
      <point x="-603.0" y="-138.0" type="qcurve" smooth="yes" name="inserted"/>
      <point x="-549" y="-138"/>
      <point x="-493" y="-200"/>
      <point x="-493.0" y="-245.0" type="qcurve" smooth="yes" name="inserted"/>
      <point x="-493" y="-290"/>
      <point x="-549" y="-350"/>
      <point x="-603.0" y="-350.0" type="qcurve" smooth="yes" name="inserted"/>
      <point x="-657" y="-350"/>
      <point x="-712" y="-290"/>
    </contour>
  </outline>
</glyph>
<glyph name="alpha" format="2">
  <advance width="1157"/>
  <unicode hex="03B1"/>
  <outline>
    <contour>
      <point x="1006" y="1082" type="line"/>
      <point x="1006" y="285" type="line" smooth="yes"/>
      <point x="1007.0" y="215.0" name="inserted"/>
      <point x="1047.0" y="145.0"/>
      <point x="1086" y="145" type="qcurve" smooth="yes"/>
      <point x="1095.5" y="145.0" name="inserted"/>
      <point x="1112.5" y="147.5"/>
      <point x="1120" y="150" type="qcurve"/>
      <point x="1143" y="13" type="line"/>
      <point x="1119.0" y="-4.0" name="inserted"/>
      <point x="1058.0" y="-21.0"/>
      <point x="1021" y="-21" type="qcurve" smooth="yes"/>
      <point x="947.5" y="-21.0" name="inserted"/>
      <point x="855.0" y="61.5"/>
      <point x="836" y="144" type="qcurve"/>
      <point x="782.5" y="61.5" name="inserted"/>
      <point x="624.5" y="-21.0"/>
      <point x="520" y="-21" type="qcurve" smooth="yes"/>
      <point x="328" y="-21"/>
      <point x="100" y="262"/>
      <point x="100" y="506" type="qcurve" smooth="yes"/>
      <point x="100" y="521" type="line" smooth="yes"/>
      <point x="100" y="785"/>
      <point x="326" y="1102"/>
      <point x="522" y="1102" type="qcurve" smooth="yes"/>
      <point x="623.5" y="1102.0" name="inserted"/>
      <point x="778.5" y="1021.5"/>
      <point x="832" y="941" type="qcurve"/>
      <point x="849" y="1082" type="line"/>
    </contour>
    <contour>
      <point x="285" y="500" type="qcurve" smooth="yes"/>
      <point x="285" y="325"/>
      <point x="431" y="130"/>
      <point x="566" y="130" type="qcurve" smooth="yes"/>
      <point x="652.5" y="130.0" name="inserted"/>
      <point x="780.0" y="223.0"/>
      <point x="821" y="316" type="qcurve"/>
      <point x="821" y="762" type="line"/>
      <point x="778.5" y="856.0" name="inserted"/>
      <point x="652.0" y="950.0"/>
      <point x="568" y="950" type="qcurve" smooth="yes"/>
      <point x="434" y="950"/>
      <point x="285" y="723"/>
    </contour>
  </outline>
</glyph>
<glyph name="pi" format="2">
  <advance width="1220"/>
  <unicode hex="03C0"/>
  <outline>
    <contour>
      <point x="1137" y="929" type="line"/>
      <point x="981" y="929" type="line"/>
      <point x="981" y="275" type="line" smooth="yes"/>
      <point x="981" y="211"/>
      <point x="1035" y="146"/>
      <point x="1100" y="146" type="qcurve" smooth="yes"/>
      <point x="1124.0" y="146.0" name="inserted"/>
      <point x="1167.5" y="152.0"/>
      <point x="1187" y="158" type="qcurve"/>
      <point x="1188" y="7" type="line"/>
      <point x="1153.0" y="-2.5" name="inserted"/>
      <point x="1081.5" y="-12.0"/>
      <point x="1045" y="-12" type="qcurve" smooth="yes"/>
      <point x="920.5" y="-12.0" name="inserted"/>
      <point x="796.0" y="135.0"/>
      <point x="796" y="282" type="qcurve" smooth="yes"/>
      <point x="796" y="929" type="line"/>
      <point x="395" y="929" type="line"/>
      <point x="395" y="0" type="line"/>
      <point x="210" y="0" type="line"/>
      <point x="210" y="929" type="line"/>
      <point x="41" y="929" type="line"/>
      <point x="41" y="1082" type="line"/>
      <point x="1137" y="1082" type="line"/>
    </contour>
  </outline>
</glyph>
<glyph name="tau" format="2">
  <advance width="1068"/>
  <unicode hex="03C4"/>
  <outline>
    <contour>
      <point x="985" y="932" type="line"/>
      <point x="614" y="932" type="line"/>
      <point x="614" y="269" type="line" smooth="yes"/>
      <point x="614.0" y="202.5" name="inserted"/>
      <point x="666.5" y="136.0"/>
      <point x="719" y="136" type="qcurve" smooth="yes"/>
      <point x="740.5" y="136.0" name="inserted"/>
      <point x="786.5" y="149.0"/>
      <point x="811" y="162" type="qcurve"/>
      <point x="853" y="32" type="line"/>
      <point x="815.0" y="6.0" name="inserted"/>
      <point x="724.0" y="-20.0"/>
      <point x="671" y="-20" type="qcurve" smooth="yes"/>
      <point x="546" y="-20"/>
      <point x="429" y="127"/>
      <point x="428" y="273" type="qcurve" smooth="yes"/>
      <point x="428" y="932" type="line"/>
      <point x="81" y="932" type="line"/>
      <point x="81" y="1082" type="line"/>
      <point x="985" y="1082" type="line"/>
    </contour>
  </outline>
</glyph>
<glyph name="psi" format="2">
  <advance width="1434"/>
  <unicode hex="03C8"/>
  <outline>
    <contour>
      <point x="796" y="1082" type="line"/>
      <point x="796" y="136" type="line"/>
      <point x="967" y="160"/>
      <point x="1162" y="389"/>
      <point x="1162" y="567" type="qcurve" smooth="yes"/>
      <point x="1159.5" y="683.0" name="inserted"/>
      <point x="1096.0" y="940.5"/>
      <point x="1035" y="1082" type="qcurve"/>
      <point x="1229" y="1082" type="line"/>
      <point x="1288.0" y="964.0" name="inserted"/>
      <point x="1347.0" y="706.5"/>
      <point x="1347" y="567" type="qcurve" smooth="yes"/>
      <point x="1347" y="308"/>
      <point x="1062" y="4"/>
      <point x="796" y="-17" type="qcurve"/>
      <point x="796" y="-472" type="line"/>
      <point x="611" y="-472" type="line"/>
      <point x="611" y="-15" type="line"/>
      <point x="356" y="11"/>
      <point x="95" y="321"/>
      <point x="95" y="596" type="qcurve" smooth="yes"/>
      <point x="95" y="1082" type="line"/>
      <point x="281" y="1082" type="line"/>
      <point x="281" y="584" type="line" smooth="yes"/>
      <point x="283" y="390"/>
      <point x="449" y="162"/>
      <point x="611" y="137" type="qcurve"/>
      <point x="611" y="1082" type="line"/>
    </contour>
  </outline>
</glyph>
<glyph name="uni0404" format="2">
  <advance width="1380"/>
  <unicode hex="0404"/>
  <outline>
    <contour>
      <point x="1244" y="462" type="line"/>
      <point x="1217" y="231"/>
      <point x="930" y="-20"/>
      <point x="692" y="-20" type="qcurve" smooth="yes"/>
      <point x="434" y="-20"/>
      <point x="123" y="350"/>
      <point x="123" y="660" type="qcurve" smooth="yes"/>
      <point x="123" y="799" type="line" smooth="yes"/>
      <point x="123" y="1000"/>
      <point x="266" y="1309"/>
      <point x="399.5" y="1392.5" type="qcurve" smooth="yes" name="inserted"/>
      <point x="466.25" y="1434.25" name="inserted"/>
      <point x="621.0" y="1476.0"/>
      <point x="709" y="1476" type="qcurve" smooth="yes"/>
      <point x="941" y="1476"/>
      <point x="1221" y="1217"/>
      <point x="1244" y="988" type="qcurve"/>
      <point x="1052" y="988" type="line"/>
      <point x="1027" y="1160"/>
      <point x="860" y="1318"/>
      <point x="709" y="1318" type="qcurve" smooth="yes"/>
      <point x="524" y="1318"/>
      <point x="318" y="1047"/>
      <point x="316" y="813" type="qcurve"/>
      <point x="886" y="813" type="line"/>
      <point x="886" y="656" type="line"/>
      <point x="316" y="656" type="line"/>
      <point x="316" y="654" type="line" smooth="yes"/>
      <point x="316" y="417"/>
      <point x="514" y="137"/>
      <point x="692" y="137" type="qcurve" smooth="yes"/>
      <point x="852" y="137"/>
      <point x="1023" y="282"/>
      <point x="1051" y="462" type="qcurve"/>
    </contour>
  </outline>
</glyph>
<glyph name="uni0409" format="2">
  <advance width="2193"/>
  <unicode hex="0409"/>
  <outline>
    <contour>
      <point x="1262" y="1456" type="line"/>
      <point x="1262" y="891" type="line"/>
      <point x="1623" y="891" type="line" smooth="yes"/>
      <point x="1845" y="888"/>
      <point x="2107" y="648"/>
      <point x="2107" y="445" type="qcurve" smooth="yes"/>
      <point x="2107" y="247"/>
      <point x="1849" y="4"/>
      <point x="1627" y="0" type="qcurve" smooth="yes"/>
      <point x="1070" y="0" type="line"/>
      <point x="1070" y="1298" type="line"/>
      <point x="558" y="1298" type="line"/>
      <point x="532" y="721" type="line" smooth="yes"/>
      <point x="517" y="431"/>
      <point x="428" y="139"/>
      <point x="342.0" y="70.5" type="qcurve" smooth="yes" name="inserted"/>
      <point x="299.0" y="36.25" name="inserted"/>
      <point x="184.0" y="1.0"/>
      <point x="112" y="0" type="qcurve" smooth="yes"/>
      <point x="49" y="0" type="line"/>
      <point x="49" y="157" type="line"/>
      <point x="89" y="159" type="line" smooth="yes"/>
      <point x="182" y="166"/>
      <point x="282" y="273"/>
      <point x="308.0" y="390.0" type="qcurve" smooth="yes" name="inserted"/>
      <point x="321.0" y="448.5" name="inserted"/>
      <point x="339.5" y="628.5"/>
      <point x="345" y="750" type="qcurve" smooth="yes"/>
      <point x="375" y="1456" type="line"/>
    </contour>
    <contour>
      <point x="1262" y="733" type="line"/>
      <point x="1262" y="157" type="line"/>
      <point x="1613" y="157" type="line" smooth="yes"/>
      <point x="1753" y="157"/>
      <point x="1915" y="315"/>
      <point x="1915" y="447" type="qcurve" smooth="yes"/>
      <point x="1915" y="575"/>
      <point x="1758" y="731"/>
      <point x="1620" y="733" type="qcurve" smooth="yes"/>
    </contour>
  </outline>
</glyph>
<glyph name="uni0424" format="2">
  <advance width="1580"/>
  <unicode hex="0424"/>
  <outline>
    <contour>
      <point x="888" y="1310" type="line"/>
      <point x="919" y="1310" type="line" smooth="yes"/>
      <point x="1084" y="1309"/>
      <point x="1356" y="1157"/>
      <point x="1431.5" y="1023.5" type="qcurve" smooth="yes" name="inserted"/>
      <point x="1469.25" y="956.75" name="inserted"/>
      <point x="1507.0" y="807.5"/>
      <point x="1507" y="725" type="qcurve" smooth="yes"/>
      <point x="1507" y="559"/>
      <point x="1355" y="289"/>
      <point x="1221.0" y="213.5" type="qcurve" smooth="yes" name="inserted"/>
      <point x="1154.0" y="175.75" name="inserted"/>
      <point x="1005.0" y="137.0"/>
      <point x="923" y="136" type="qcurve" smooth="yes"/>
      <point x="888" y="136" type="line"/>
      <point x="888" y="-60" type="line"/>
      <point x="702" y="-60" type="line"/>
      <point x="702" y="136" type="line"/>
      <point x="674" y="136" type="line" smooth="yes"/>
      <point x="507" y="136"/>
      <point x="234" y="288"/>
      <point x="158.5" y="422.0" type="qcurve" smooth="yes" name="inserted"/>
      <point x="83" y="556"/>
      <point x="83" y="890"/>
      <point x="158.5" y="1024.0" type="qcurve" smooth="yes" name="inserted"/>
      <point x="234" y="1158"/>
      <point x="507" y="1310"/>
      <point x="674" y="1310" type="qcurve" smooth="yes"/>
      <point x="702" y="1310" type="line"/>
      <point x="702" y="1516" type="line"/>
      <point x="888" y="1516" type="line"/>
    </contour>
    <contour>
      <point x="674" y="1159" type="line" smooth="yes"/>
      <point x="486" y="1159"/>
      <point x="267" y="928"/>
      <point x="267" y="723" type="qcurve" smooth="yes"/>
      <point x="267" y="517"/>
      <point x="485" y="288"/>
      <point x="676" y="288" type="qcurve" smooth="yes"/>
      <point x="702" y="288" type="line"/>
      <point x="702" y="1159" type="line"/>
    </contour>
    <contour>
      <point x="888" y="1159" type="line"/>
      <point x="888" y="288" type="line"/>
      <point x="916" y="288" type="line" smooth="yes"/>
      <point x="1107" y="288"/>
      <point x="1322" y="523"/>
      <point x="1322" y="725" type="qcurve" smooth="yes"/>
      <point x="1322" y="925"/>
      <point x="1107" y="1159"/>
      <point x="912" y="1159" type="qcurve" smooth="yes"/>
    </contour>
  </outline>
</glyph>
<glyph name="uni042B" format="2">
  <advance width="1771"/>
  <unicode hex="042B"/>
  <outline>
    <contour>
      <point x="370" y="862" type="line"/>
      <point x="732" y="862" type="line" smooth="yes"/>
      <point x="960" y="859"/>
      <point x="1216" y="631"/>
      <point x="1216" y="435" type="qcurve" smooth="yes"/>
      <point x="1216" y="238"/>
      <point x="958" y="4"/>
      <point x="735" y="0" type="qcurve" smooth="yes"/>
      <point x="178" y="0" type="line"/>
      <point x="178" y="1456" type="line"/>
      <point x="370" y="1456" type="line"/>
    </contour>
    <contour>
      <point x="370" y="704" type="line"/>
      <point x="370" y="157" type="line"/>
      <point x="721" y="157" type="line" smooth="yes"/>
      <point x="864" y="157"/>
      <point x="1023" y="309"/>
      <point x="1023" y="437" type="qcurve" smooth="yes"/>
      <point x="1023" y="560"/>
      <point x="870" y="702"/>
      <point x="729" y="704" type="qcurve" smooth="yes"/>
    </contour>
    <contour>
      <point x="1584" y="0" type="line"/>
      <point x="1392" y="0" type="line"/>
      <point x="1392" y="1456" type="line"/>
      <point x="1584" y="1456" type="line"/>
    </contour>
  </outline>
</glyph>
<glyph name="uni042E" format="2">
  <advance width="1831"/>
  <unicode hex="042E"/>
  <outline>
    <contour>
      <point x="1754" y="681" type="line" smooth="yes"/>
      <point x="1754" y="467"/>
      <point x="1610" y="148"/>
      <point x="1478.0" y="64.0" type="qcurve" smooth="yes" name="inserted"/>
      <point x="1412.0" y="22.0" name="inserted"/>
      <point x="1258.0" y="-20.0"/>
      <point x="1170" y="-20" type="qcurve" smooth="yes"/>
      <point x="1004" y="-20"/>
      <point x="741" y="140"/>
      <point x="666.5" y="289.0" type="qcurve" smooth="yes" name="inserted"/>
      <point x="629.25" y="363.5" name="inserted"/>
      <point x="588.0" y="537.5"/>
      <point x="584" y="637" type="qcurve"/>
      <point x="375" y="637" type="line"/>
      <point x="375" y="0" type="line"/>
      <point x="183" y="0" type="line"/>
      <point x="183" y="1456" type="line"/>
      <point x="375" y="1456" type="line"/>
      <point x="375" y="788" type="line"/>
      <point x="583" y="788" type="line"/>
      <point x="586" y="994"/>
      <point x="730" y="1305"/>
      <point x="863.0" y="1390.5" type="qcurve" smooth="yes" name="inserted"/>
      <point x="929.5" y="1433.25" name="inserted"/>
      <point x="1082.0" y="1476.0"/>
      <point x="1168" y="1476" type="qcurve" smooth="yes"/>
      <point x="1343" y="1476"/>
      <point x="1610" y="1307"/>
      <point x="1682.0" y="1146.5" type="qcurve" smooth="yes" name="inserted"/>
      <point x="1718.0" y="1066.25" name="inserted"/>
      <point x="1754.0" y="879.5"/>
      <point x="1754" y="773" type="qcurve" smooth="yes"/>
    </contour>
    <contour>
      <point x="1563" y="775" type="line" smooth="yes"/>
      <point x="1563" y="1034"/>
      <point x="1355" y="1311"/>
      <point x="1168" y="1311" type="qcurve" smooth="yes"/>
      <point x="986" y="1311"/>
      <point x="777" y="1034"/>
      <point x="774" y="788" type="qcurve"/>
      <point x="774" y="681" type="line" smooth="yes"/>
      <point x="774" y="430"/>
      <point x="985" y="143"/>
      <point x="1170" y="143" type="qcurve" smooth="yes"/>
      <point x="1356" y="143"/>
      <point x="1560" y="414"/>
      <point x="1563" y="667" type="qcurve" smooth="yes"/>
    </contour>
  </outline>
</glyph>
<glyph name="uni043A" format="2">
  <advance width="1106"/>
  <unicode hex="043A"/>
  <outline>
    <contour>
      <point x="477" y="461" type="line"/>
      <point x="342" y="461" type="line"/>
      <point x="342" y="0" type="line"/>
      <point x="156" y="0" type="line"/>
      <point x="156" y="1082" type="line"/>
      <point x="342" y="1082" type="line"/>
      <point x="342" y="624" type="line"/>
      <point x="463" y="624" type="line"/>
      <point x="827" y="1082" type="line"/>
      <point x="1051" y="1082" type="line"/>
      <point x="623" y="562" type="line"/>
      <point x="1087" y="0" type="line"/>
      <point x="852" y="0" type="line"/>
    </contour>
  </outline>
</glyph>
<glyph name="uni0446" format="2">
  <advance width="1213"/>
  <unicode hex="0446"/>
  <outline>
    <contour>
      <point x="156" y="1082" type="line"/>
      <point x="342" y="1082" type="line"/>
      <point x="342" y="151" type="line"/>
      <point x="840" y="151" type="line"/>
      <point x="840" y="1082" type="line"/>
      <point x="1025" y="1082" type="line"/>
      <point x="1025" y="151" type="line"/>
      <point x="1154" y="151" type="line"/>
      <point x="1136" y="-321" type="line"/>
      <point x="970" y="-321" type="line"/>
      <point x="970" y="0" type="line"/>
      <point x="156" y="0" type="line"/>
    </contour>
  </outline>
</glyph>
<glyph name="uni044A" format="2">
  <advance width="1271"/>
  <unicode hex="044A"/>
  <outline>
    <contour>
      <point x="30" y="1082" type="line"/>
      <point x="536" y="1082" type="line"/>
      <point x="536" y="709" type="line"/>
      <point x="817" y="709" type="line" smooth="yes"/>
      <point x="1001" y="707"/>
      <point x="1215" y="519"/>
      <point x="1215" y="358" type="qcurve" smooth="yes"/>
      <point x="1215" y="196"/>
      <point x="995" y="0"/>
      <point x="809" y="0" type="qcurve" smooth="yes"/>
      <point x="351" y="0" type="line"/>
      <point x="351" y="930" type="line"/>
      <point x="30" y="930" type="line"/>
    </contour>
    <contour>
      <point x="536" y="558" type="line"/>
      <point x="536" y="151" type="line"/>
      <point x="811" y="151" type="line" smooth="yes"/>
      <point x="915" y="151"/>
      <point x="1029" y="258"/>
      <point x="1029" y="351" type="qcurve" smooth="yes"/>
      <point x="1029" y="441"/>
      <point x="918" y="556"/>
      <point x="818" y="558" type="qcurve" smooth="yes"/>
    </contour>
  </outline>
</glyph>
<glyph name="uni044D" format="2">
  <advance width="1101"/>
  <unicode hex="044D"/>
  <outline>
    <contour>
      <point x="520" y="950" type="qcurve" smooth="yes"/>
      <point x="421" y="950"/>
      <point x="276" y="824"/>
      <point x="276" y="738" type="qcurve"/>
      <point x="100" y="738" type="line"/>
      <point x="100" y="831"/>
      <point x="218" y="1001"/>
      <point x="316.0" y="1051.5" type="qcurve" smooth="yes" name="inserted"/>
      <point x="365.0" y="1076.75" name="inserted"/>
      <point x="467.0" y="1102.0"/>
      <point x="520" y="1102" type="qcurve" smooth="yes"/>
      <point x="731" y="1102"/>
      <point x="992" y="797"/>
      <point x="992" y="551" type="qcurve" smooth="yes"/>
      <point x="992" y="520" type="line" smooth="yes"/>
      <point x="992" y="368"/>
      <point x="873" y="117"/>
      <point x="765.5" y="48.5" type="qcurve" smooth="yes" name="inserted"/>
      <point x="711.75" y="14.25" name="inserted"/>
      <point x="589.0" y="-20.0"/>
      <point x="520" y="-20" type="qcurve" smooth="yes"/>
      <point x="340" y="-20"/>
      <point x="100" y="204"/>
      <point x="100" y="371" type="qcurve"/>
      <point x="276" y="371" type="line"/>
      <point x="276" y="269"/>
      <point x="418" y="130"/>
      <point x="520" y="130" type="qcurve" smooth="yes"/>
      <point x="639" y="130"/>
      <point x="793" y="314"/>
      <point x="805" y="475" type="qcurve"/>
      <point x="399" y="475" type="line"/>
      <point x="399" y="627" type="line"/>
      <point x="803" y="627" type="line"/>
      <point x="789" y="773"/>
      <point x="639" y="950"/>
    </contour>
  </outline>
</glyph>
<glyph name="uni046D" format="2">
  <advance width="2001"/>
  <unicode hex="046D"/>
  <outline>
    <contour>
      <point x="646" y="0" type="line"/>
      <point x="646" y="175" type="line" smooth="yes"/>
      <point x="647.0" y="261.5" name="inserted"/>
      <point x="683.0" y="400.0"/>
      <point x="718" y="452" type="qcurve"/>
      <point x="341" y="452" type="line"/>
      <point x="341" y="0" type="line"/>
      <point x="155" y="0" type="line"/>
      <point x="155" y="1082" type="line"/>
      <point x="341" y="1082" type="line"/>
      <point x="341" y="604" type="line"/>
      <point x="1062" y="604" type="line"/>
      <point x="775" y="1082" type="line"/>
      <point x="1734" y="1082" type="line"/>
      <point x="1446" y="603" type="line"/>
      <point x="1652" y="592"/>
      <point x="1849" y="381"/>
      <point x="1851" y="173" type="qcurve" smooth="yes"/>
      <point x="1851" y="0" type="line"/>
      <point x="1665" y="0" type="line"/>
      <point x="1665" y="177" type="line" smooth="yes"/>
      <point x="1663" y="323"/>
      <point x="1548" y="452"/>
      <point x="1408" y="452" type="qcurve" smooth="yes"/>
      <point x="1355" y="452" type="line"/>
      <point x="1344" y="433" type="line"/>
      <point x="1344" y="0" type="line"/>
      <point x="1159" y="0" type="line"/>
      <point x="1159" y="443" type="line"/>
      <point x="1153" y="452" type="line"/>
      <point x="1078" y="452" type="line" smooth="yes"/>
      <point x="945" y="450"/>
      <point x="834" y="322"/>
      <point x="832" y="175" type="qcurve"/>
      <point x="832" y="0" type="line"/>
    </contour>
    <contour>
      <point x="1250" y="604" type="line"/>
      <point x="1258" y="604" type="line"/>
      <point x="1441" y="930" type="line"/>
      <point x="1068" y="930" type="line"/>
    </contour>
  </outline>
</glyph>
<glyph name="uni046F" format="2">
  <advance width="987"/>
  <unicode hex="046F"/>
  <outline>
    <contour>
      <point x="679" y="777" type="qcurve" smooth="yes"/>
      <point x="679" y="844"/>
      <point x="552" y="927"/>
      <point x="440" y="929" type="qcurve" smooth="yes"/>
      <point x="129" y="929" type="line"/>
      <point x="129" y="1082" type="line"/>
      <point x="424" y="1082" type="line" smooth="yes"/>
      <point x="626" y="1082"/>
      <point x="864" y="912"/>
      <point x="864" y="773" type="qcurve" smooth="yes"/>
      <point x="864" y="700"/>
      <point x="762" y="581"/>
      <point x="671" y="545" type="qcurve"/>
      <point x="778.5" y="512.0" name="inserted"/>
      <point x="886.0" y="391.5"/>
      <point x="886" y="304" type="qcurve" smooth="yes"/>
      <point x="886" y="156"/>
      <point x="643" y="-19"/>
      <point x="443" y="-19" type="qcurve" smooth="yes"/>
      <point x="393" y="-19" type="line" smooth="yes"/>
      <point x="322.5" y="-20.5" name="inserted"/>
      <point x="252.0" y="-76.5"/>
      <point x="252" y="-131" type="qcurve" smooth="yes"/>
      <point x="252.0" y="-183.5" name="inserted"/>
      <point x="317.0" y="-269.0"/>
      <point x="382" y="-302" type="qcurve" smooth="yes"/>
      <point x="413" y="-317" type="line"/>
      <point x="338" y="-442" type="line"/>
      <point x="214" y="-387"/>
      <point x="76" y="-219"/>
      <point x="76" y="-122" type="qcurve" smooth="yes"/>
      <point x="76" y="0"/>
      <point x="241" y="131"/>
      <point x="403" y="132" type="qcurve" smooth="yes"/>
      <point x="457" y="132" type="line" smooth="yes"/>
      <point x="514.0" y="133.0" name="inserted"/>
      <point x="604.5" y="158.0"/>
      <point x="638" y="182" type="qcurve" smooth="yes"/>
      <point x="669.5" y="205.0" name="inserted"/>
      <point x="701.0" y="264.0"/>
      <point x="701" y="300" type="qcurve" smooth="yes"/>
      <point x="701.0" y="381.0" name="inserted"/>
      <point x="561.0" y="463.5"/>
      <point x="421" y="465" type="qcurve" smooth="yes"/>
      <point x="268" y="465" type="line"/>
      <point x="268" y="617" type="line"/>
      <point x="404" y="617" type="line" smooth="yes"/>
      <point x="541.5" y="617.0" name="inserted"/>
      <point x="679.0" y="697.0"/>
    </contour>
    <contour>
      <point x="462" y="1414" type="line"/>
      <point x="613" y="1584" type="line"/>
      <point x="773" y="1584" type="line"/>
      <point x="773" y="1574" type="line"/>
      <point x="519" y="1300" type="line"/>
      <point x="405" y="1300" type="line"/>
      <point x="155" y="1574" type="line"/>
      <point x="155" y="1584" type="line"/>
      <point x="312" y="1584" type="line"/>
    </contour>
  </outline>
</glyph>
<glyph name="uni047B" format="2">
  <advance width="1160"/>
  <unicode hex="047B"/>
  <outline>
    <contour>
      <point x="91" y="551" type="line" smooth="yes"/>
      <point x="91" y="761"/>
      <point x="303" y="1059"/>
      <point x="488" y="1093" type="qcurve"/>
      <point x="488" y="1205" type="line"/>
      <point x="673" y="1205" type="line"/>
      <point x="673" y="1094" type="line"/>
      <point x="859" y="1062"/>
      <point x="1076" y="766"/>
      <point x="1076" y="545" type="qcurve" smooth="yes"/>
      <point x="1076" y="529" type="line" smooth="yes"/>
      <point x="1076" y="313"/>
      <point x="855" y="17"/>
      <point x="673" y="-12" type="qcurve"/>
      <point x="673" y="-119" type="line"/>
      <point x="488" y="-119" type="line"/>
      <point x="488" y="-11" type="line"/>
      <point x="308" y="20"/>
      <point x="91" y="315"/>
      <point x="91" y="535" type="qcurve" smooth="yes"/>
    </contour>
    <contour>
      <point x="673" y="144" type="line"/>
      <point x="772" y="175"/>
      <point x="890" y="380"/>
      <point x="890" y="551" type="qcurve" smooth="yes"/>
      <point x="890" y="696"/>
      <point x="774" y="904"/>
      <point x="673" y="936" type="qcurve"/>
      <point x="673" y="838" type="line"/>
      <point x="488" y="838" type="line"/>
      <point x="488" y="935" type="line"/>
      <point x="390" y="902"/>
      <point x="276" y="694"/>
      <point x="276" y="529" type="qcurve" smooth="yes"/>
      <point x="276" y="383"/>
      <point x="389" y="180"/>
      <point x="488" y="146" type="qcurve"/>
      <point x="488" y="248" type="line"/>
      <point x="673" y="248" type="line"/>
    </contour>
  </outline>
</glyph>
<glyph name="uni0483" format="2">
  <unicode hex="0483"/>
  <outline>
    <contour>
      <point x="-755" y="1315" type="line"/>
      <point x="-755" y="1190" type="line"/>
      <point x="-921" y="1191" type="line"/>
      <point x="-920" y="1424" type="line"/>
      <point x="-381" y="1424" type="line"/>
      <point x="-382" y="1532" type="line"/>
      <point x="-217" y="1531" type="line"/>
      <point x="-217" y="1315" type="line"/>
    </contour>
  </outline>
</glyph>
<glyph name="uni0486" format="2">
  <unicode hex="0486"/>
  <outline>
    <contour>
      <point x="-527" y="1302" type="line"/>
      <point x="-604" y="1367" type="line"/>
      <point x="-545" y="1483" type="line"/>
      <point x="-546" y="1623" type="line"/>
      <point x="-365" y="1623" type="line"/>
      <point x="-365" y="1500" type="line"/>
    </contour>
  </outline>
</glyph>
<glyph name="uni048E" format="2">
  <advance width="1307"/>
  <unicode hex="048E"/>
  <outline>
    <contour>
      <point x="361" y="570" type="line"/>
      <point x="361" y="0" type="line"/>
      <point x="168" y="0" type="line"/>
      <point x="168" y="1456" type="line"/>
      <point x="705" y="1456" type="line" smooth="yes"/>
      <point x="941" y="1456"/>
      <point x="1216" y="1214"/>
      <point x="1216" y="1011" type="qcurve" smooth="yes"/>
      <point x="1216.0" y="918.0" name="inserted"/>
      <point x="1164.5" y="769.0"/>
      <point x="1113" y="713" type="qcurve"/>
      <point x="1239" y="575" type="line"/>
      <point x="1130" y="472" type="line"/>
      <point x="991" y="625" type="line"/>
      <point x="932.0" y="597.5" name="inserted"/>
      <point x="789.0" y="570.0"/>
      <point x="705" y="570" type="qcurve" smooth="yes"/>
    </contour>
    <contour>
      <point x="986" y="853" type="line"/>
      <point x="1004.5" y="885.5" name="inserted"/>
      <point x="1023.0" y="963.5"/>
      <point x="1023" y="1009" type="qcurve" smooth="yes"/>
      <point x="1023" y="1139"/>
      <point x="858" y="1296"/>
      <point x="713" y="1298" type="qcurve" smooth="yes"/>
      <point x="361" y="1298" type="line"/>
      <point x="361" y="727" type="line"/>
      <point x="705" y="727" type="line" smooth="yes"/>
      <point x="754.0" y="727.0" name="inserted"/>
      <point x="837.5" y="741.5"/>
      <point x="872" y="756" type="qcurve"/>
      <point x="762" y="877" type="line"/>
      <point x="872" y="979" type="line"/>
    </contour>
  </outline>
</glyph>
<glyph name="uni049D" format="2">
  <advance width="1150"/>
  <unicode hex="049D"/>
  <outline>
    <contour>
      <point x="1114" y="1082" type="line"/>
      <point x="776" y="568" type="line"/>
      <point x="1151" y="0" type="line"/>
      <point x="916" y="0" type="line"/>
      <point x="639" y="461" type="line"/>
      <point x="589" y="461" type="line"/>
      <point x="589" y="267" type="line"/>
      <point x="441" y="267" type="line"/>
      <point x="441" y="461" type="line"/>
      <point x="340" y="461" type="line"/>
      <point x="340" y="0" type="line"/>
      <point x="154" y="0" type="line"/>
      <point x="154" y="1082" type="line"/>
      <point x="340" y="1082" type="line"/>
      <point x="340" y="624" type="line"/>
      <point x="441" y="624" type="line"/>
      <point x="441" y="837" type="line"/>
      <point x="589" y="837" type="line"/>
      <point x="589" y="624" type="line"/>
      <point x="631" y="624" type="line"/>
      <point x="890" y="1082" type="line"/>
    </contour>
  </outline>
</glyph>
<glyph name="uni04A4" format="2">
  <advance width="1999"/>
  <unicode hex="04A4"/>
  <outline>
    <contour>
      <point x="361" y="830" type="line"/>
      <point x="1095" y="830" type="line"/>
      <point x="1095" y="1456" type="line"/>
      <point x="1924" y="1456" type="line"/>
      <point x="1924" y="1304" type="line"/>
      <point x="1287" y="1304" type="line"/>
      <point x="1287" y="0" type="line"/>
      <point x="1095" y="0" type="line"/>
      <point x="1095" y="673" type="line"/>
      <point x="361" y="673" type="line"/>
      <point x="361" y="0" type="line"/>
      <point x="168" y="0" type="line"/>
      <point x="168" y="1456" type="line"/>
      <point x="361" y="1456" type="line"/>
    </contour>
  </outline>
</glyph>
<glyph name="uni04B5" format="2">
  <advance width="1372"/>
  <unicode hex="04B5"/>
  <outline>
    <contour>
      <point x="305" y="931" type="line"/>
      <point x="31" y="931" type="line"/>
      <point x="31" y="1082" type="line"/>
      <point x="739" y="1082" type="line"/>
      <point x="739" y="931" type="line"/>
      <point x="490" y="931" type="line"/>
      <point x="490" y="151" type="line"/>
      <point x="988" y="151" type="line"/>
      <point x="988" y="1082" type="line"/>
      <point x="1174" y="1082" type="line"/>
      <point x="1174" y="151" type="line"/>
      <point x="1302" y="151" type="line"/>
      <point x="1284" y="-321" type="line"/>
      <point x="1119" y="-321" type="line"/>
      <point x="1119" y="0" type="line"/>
      <point x="305" y="0" type="line"/>
    </contour>
  </outline>
</glyph>
<glyph name="uni04B8" format="2">
  <advance width="1391"/>
  <unicode hex="04B8"/>
  <outline>
    <contour>
      <point x="343" y="1456" type="line"/>
      <point x="343" y="994" type="line" smooth="yes"/>
      <point x="344" y="840"/>
      <point x="481" y="708"/>
      <point x="641" y="708" type="qcurve"/>
      <point x="641" y="1018" type="line"/>
      <point x="790" y="1018" type="line"/>
      <point x="790" y="716" type="line"/>
      <point x="850.5" y="722.5" name="inserted"/>
      <point x="971.0" y="745.5"/>
      <point x="1031" y="762" type="qcurve"/>
      <point x="1031" y="1456" type="line"/>
      <point x="1224" y="1456" type="line"/>
      <point x="1224" y="0" type="line"/>
      <point x="1031" y="0" type="line"/>
      <point x="1031" y="603" type="line"/>
      <point x="974.0" y="586.0" name="inserted"/>
      <point x="853.5" y="562.5"/>
      <point x="790" y="556" type="qcurve"/>
      <point x="790" y="318" type="line"/>
      <point x="641" y="318" type="line"/>
      <point x="641" y="550" type="line"/>
      <point x="393" y="550"/>
      <point x="154" y="767"/>
      <point x="150" y="985" type="qcurve" smooth="yes"/>
      <point x="150" y="1456" type="line"/>
    </contour>
  </outline>
</glyph>
<glyph name="uni04B9" format="2">
  <advance width="1130"/>
  <unicode hex="04B9"/>
  <outline>
    <contour>
      <point x="985" y="0" type="line"/>
      <point x="799" y="0" type="line"/>
      <point x="799" y="392" type="line"/>
      <point x="764.0" y="382.5" name="inserted"/>
      <point x="687.5" y="368.5"/>
      <point x="646" y="364" type="qcurve"/>
      <point x="646" y="229" type="line"/>
      <point x="496" y="229" type="line"/>
      <point x="496" y="362" type="line"/>
      <point x="320" y="375"/>
      <point x="133" y="579"/>
      <point x="131" y="760" type="qcurve" smooth="yes"/>
      <point x="131" y="1083" type="line"/>
      <point x="316" y="1083" type="line"/>
      <point x="316" y="752" type="line" smooth="yes"/>
      <point x="318.5" y="646.5" name="inserted"/>
      <point x="408.5" y="528.0"/>
      <point x="496" y="515" type="qcurve"/>
      <point x="496" y="795" type="line"/>
      <point x="646" y="795" type="line"/>
      <point x="646" y="517" type="line"/>
      <point x="688.0" y="522.0" name="inserted"/>
      <point x="764.5" y="535.5"/>
      <point x="799" y="544" type="qcurve"/>
      <point x="799" y="1082" type="line"/>
      <point x="985" y="1082" type="line"/>
    </contour>
  </outline>
</glyph>
<glyph name="uni04BA" format="2">
  <advance width="1391"/>
  <unicode hex="04BA"/>
  <outline>
    <contour>
      <point x="137" y="0" type="line"/>
      <point x="137" y="1456" type="line"/>
      <point x="329" y="1456" type="line"/>
      <point x="329" y="852" type="line"/>
      <point x="421.5" y="878.5" name="inserted"/>
      <point x="615.5" y="905.0"/>
      <point x="717" y="905" type="qcurve" smooth="yes"/>
      <point x="965" y="905"/>
      <point x="1207" y="689"/>
      <point x="1210" y="466" type="qcurve" smooth="yes"/>
      <point x="1210" y="0" type="line"/>
      <point x="1018" y="0" type="line"/>
      <point x="1018" y="461" type="line" smooth="yes"/>
      <point x="1017" y="613"/>
      <point x="880" y="747"/>
      <point x="717" y="747" type="qcurve" smooth="yes"/>
      <point x="623.0" y="747.0" name="inserted"/>
      <point x="429.0" y="719.5"/>
      <point x="329" y="692" type="qcurve"/>
      <point x="329" y="0" type="line"/>
    </contour>
  </outline>
</glyph>
<glyph name="uni04BD" format="2">
  <advance width="1213"/>
  <unicode hex="04BD"/>
  <outline>
    <contour>
      <point x="701" y="-20" type="qcurve" smooth="yes"/>
      <point x="481" y="-20"/>
      <point x="205" y="269"/>
      <point x="205" y="519" type="qcurve"/>
      <point x="85" y="548"/>
      <point x="-34" y="722"/>
      <point x="-34" y="856" type="qcurve"/>
      <point x="113" y="856" type="line"/>
      <point x="113.0" y="782.5" name="inserted"/>
      <point x="163.5" y="685.0"/>
      <point x="214" y="661" type="qcurve"/>
      <point x="234" y="791"/>
      <point x="366" y="992"/>
      <point x="466.0" y="1047.0" type="qcurve" smooth="yes" name="inserted"/>
      <point x="516.0" y="1074.5" name="inserted"/>
      <point x="622.0" y="1102.0"/>
      <point x="678" y="1102" type="qcurve" smooth="yes"/>
      <point x="889" y="1102"/>
      <point x="1123" y="824"/>
      <point x="1123" y="565" type="qcurve" smooth="yes"/>
      <point x="1123" y="488" type="line"/>
      <point x="390" y="488" type="line"/>
      <point x="394" y="328"/>
      <point x="573" y="131"/>
      <point x="711" y="131" type="qcurve" smooth="yes"/>
      <point x="798.0" y="131.0" name="inserted"/>
      <point x="940.5" y="204.0"/>
      <point x="996" y="277" type="qcurve"/>
      <point x="1109" y="189" type="line"/>
      <point x="1041.0" y="84.5" name="inserted"/>
      <point x="837.0" y="-20.0"/>
    </contour>
    <contour>
      <point x="678" y="950" type="qcurve" smooth="yes"/>
      <point x="566" y="950"/>
      <point x="414" y="787"/>
      <point x="396" y="640" type="qcurve"/>
      <point x="938" y="640" type="line"/>
      <point x="938" y="654" type="line"/>
      <point x="930" y="795"/>
      <point x="794" y="950"/>
    </contour>
  </outline>
</glyph>
<glyph name="uni04C4" format="2">
  <advance width="1114"/>
  <unicode hex="04C4"/>
  <outline>
    <contour>
      <point x="639" y="612" type="line"/>
      <point x="834" y="581"/>
      <point x="1040" y="355"/>
      <point x="1040" y="175" type="qcurve" smooth="yes"/>
      <point x="1040" y="82"/>
      <point x="940" y="-115"/>
      <point x="854.0" y="-177.0" type="qcurve" smooth="yes" name="inserted"/>
      <point x="811.0" y="-208.0" name="inserted"/>
      <point x="712.0" y="-248.5"/>
      <point x="656" y="-258" type="qcurve"/>
      <point x="608" y="-112" type="line"/>
      <point x="732.0" y="-83.5" name="inserted"/>
      <point x="856.0" y="60.0"/>
      <point x="856" y="175" type="qcurve" smooth="yes"/>
      <point x="856" y="313"/>
      <point x="683" y="459"/>
      <point x="518" y="461" type="qcurve" smooth="yes"/>
      <point x="340" y="461" type="line"/>
      <point x="340" y="0" type="line"/>
      <point x="154" y="0" type="line"/>
      <point x="154" y="1082" type="line"/>
      <point x="340" y="1082" type="line"/>
      <point x="340" y="624" type="line"/>
      <point x="431" y="624" type="line"/>
      <point x="825" y="1082" type="line"/>
      <point x="1049" y="1082" type="line"/>
    </contour>
  </outline>
</glyph>
<glyph name="uni04C7" format="2">
  <advance width="1458"/>
  <unicode hex="04C7"/>
  <outline>
    <contour>
      <point x="370" y="1456" type="line"/>
      <point x="370" y="798" type="line"/>
      <point x="1086" y="798" type="line"/>
      <point x="1086" y="1456" type="line"/>
      <point x="1278" y="1456" type="line"/>
      <point x="1278" y="-83" type="line" smooth="yes"/>
      <point x="1278" y="-251"/>
      <point x="1107" y="-437"/>
      <point x="951" y="-437" type="qcurve" smooth="yes"/>
      <point x="921.0" y="-437.0" name="inserted"/>
      <point x="864.0" y="-428.0"/>
      <point x="837" y="-419" type="qcurve"/>
      <point x="851" y="-265" type="line"/>
      <point x="869.5" y="-272.0" name="inserted"/>
      <point x="918.5" y="-279.0"/>
      <point x="949" y="-279" type="qcurve" smooth="yes"/>
      <point x="1014" y="-279"/>
      <point x="1086" y="-176"/>
      <point x="1086" y="-84" type="qcurve" smooth="yes"/>
      <point x="1086" y="641" type="line"/>
      <point x="370" y="641" type="line"/>
      <point x="370" y="0" type="line"/>
      <point x="177" y="0" type="line"/>
      <point x="177" y="1456" type="line"/>
    </contour>
  </outline>
</glyph>
<glyph name="uni04E1" format="2">
  <advance width="1192"/>
  <unicode hex="04E1"/>
  <outline>
    <contour>
      <point x="780" y="929" type="line"/>
      <point x="148" y="929" type="line"/>
      <point x="148" y="1082" type="line"/>
      <point x="1017" y="1082" type="line"/>
      <point x="1018" y="964" type="line"/>
      <point x="620" y="469" type="line"/>
      <point x="832" y="453"/>
      <point x="1064" y="228"/>
      <point x="1064" y="31" type="qcurve" smooth="yes"/>
      <point x="1064" y="-164"/>
      <point x="796" y="-395"/>
      <point x="574" y="-395" type="qcurve" smooth="yes"/>
      <point x="442" y="-395"/>
      <point x="227" y="-293"/>
      <point x="166.0" y="-197.5" type="qcurve" smooth="yes" name="inserted"/>
      <point x="135.5" y="-149.75" name="inserted"/>
      <point x="105.0" y="-36.5"/>
      <point x="105" y="29" type="qcurve"/>
      <point x="291" y="29" type="line"/>
      <point x="291" y="-84"/>
      <point x="449" y="-243"/>
      <point x="574" y="-243" type="qcurve" smooth="yes"/>
      <point x="715" y="-243"/>
      <point x="879" y="-94"/>
      <point x="879" y="27" type="qcurve" smooth="yes"/>
      <point x="879.0" y="172.0" name="inserted"/>
      <point x="723.5" y="321.0"/>
      <point x="568" y="325" type="qcurve" smooth="yes"/>
      <point x="408" y="325" type="line"/>
      <point x="408" y="476" type="line"/>
    </contour>
  </outline>
</glyph>
<glyph name="guilsinglright" format="2">
  <advance width="614"/>
  <unicode hex="203A"/>
  <outline>
    <contour>
      <point x="231" y="949" type="line"/>
      <point x="526" y="560" type="line"/>
      <point x="526" y="541" type="line"/>
      <point x="231" y="152" type="line"/>
      <point x="89" y="152" type="line"/>
      <point x="347" y="550" type="line"/>
      <point x="89" y="949" type="line"/>
    </contour>
  </outline>
</glyph>
<glyph name="fraction" format="2">
  <advance width="931"/>
  <unicode hex="2044"/>
  <outline>
    <contour>
      <point x="163" y="110" type="line"/>
      <point x="59" y="176" type="line"/>
      <point x="770" y="1314" type="line"/>
      <point x="874" y="1248" type="line"/>
    </contour>
  </outline>
</glyph>
<glyph name="uni207F" format="2">
  <advance width="864"/>
  <unicode hex="207F"/>
  <outline>
    <contour>
      <point x="250" y="1451" type="line"/>
      <point x="280" y="1328" type="line"/>
      <point x="317.0" y="1397.0" name="inserted"/>
      <point x="427.0" y="1466.0"/>
      <point x="500" y="1466" type="qcurve" smooth="yes"/>
      <point x="630.0" y="1466.0" name="inserted"/>
      <point x="760.0" y="1309.0"/>
      <point x="760" y="1152" type="qcurve" smooth="yes"/>
      <point x="760" y="651" type="line"/>
      <point x="590" y="651" type="line"/>
      <point x="590" y="1137" type="line" smooth="yes"/>
      <point x="588.5" y="1229.5" name="inserted"/>
      <point x="516.5" y="1322.0"/>
      <point x="446" y="1322" type="qcurve" smooth="yes"/>
      <point x="391.0" y="1322.0" name="inserted"/>
      <point x="314.0" y="1267.5"/>
      <point x="292" y="1213" type="qcurve"/>
      <point x="292" y="651" type="line"/>
      <point x="122" y="651" type="line"/>
      <point x="122" y="1451" type="line"/>
    </contour>
  </outline>
</glyph>
<glyph name="uni20BD" format="2">
  <advance width="1359"/>
  <unicode hex="20BD"/>
  <outline>
    <contour>
      <point x="764" y="275" type="line"/>
      <point x="429" y="275" type="line"/>
      <point x="429" y="0" type="line"/>
      <point x="238" y="0" type="line"/>
      <point x="238" y="275" type="line"/>
      <point x="31" y="275" type="line"/>
      <point x="31" y="433" type="line"/>
      <point x="238" y="433" type="line"/>
      <point x="238" y="570" type="line"/>
      <point x="31" y="570" type="line"/>
      <point x="31" y="727" type="line"/>
      <point x="238" y="727" type="line"/>
      <point x="238" y="1456" type="line"/>
      <point x="775" y="1456" type="line" smooth="yes"/>
      <point x="1009" y="1456"/>
      <point x="1283" y="1218"/>
      <point x="1283" y="1015" type="qcurve" smooth="yes"/>
      <point x="1283" y="802"/>
      <point x="1020" y="571"/>
      <point x="778" y="570" type="qcurve" smooth="yes"/>
      <point x="429" y="570" type="line"/>
      <point x="429" y="433" type="line"/>
      <point x="764" y="433" type="line"/>
    </contour>
    <contour>
      <point x="429" y="727" type="line"/>
      <point x="775" y="727" type="line" smooth="yes"/>
      <point x="930" y="727"/>
      <point x="1092" y="873"/>
      <point x="1092" y="1013" type="qcurve" smooth="yes"/>
      <point x="1092" y="1140"/>
      <point x="924" y="1297"/>
      <point x="781" y="1298" type="qcurve" smooth="yes"/>
      <point x="429" y="1298" type="line"/>
    </contour>
  </outline>
</glyph>
<glyph name="radical" format="2">
  <advance width="1221"/>
  <unicode hex="221A"/>
  <outline>
    <contour>
      <point x="560" y="284" type="line"/>
      <point x="987" y="1456" type="line"/>
      <point x="1176" y="1456" type="line"/>
      <point x="634" y="0" type="line"/>
      <point x="493" y="0" type="line"/>
      <point x="248" y="628" type="line"/>
      <point x="63" y="628" type="line"/>
      <point x="63" y="782" type="line"/>
      <point x="378" y="782" type="line"/>
    </contour>
  </outline>
</glyph>
<glyph name="uniFFFC" format="2">
  <advance width="2099"/>
  <unicode hex="FFFC"/>
  <outline>
    <contour>
      <point x="825" y="468" type="line" smooth="yes"/>
      <point x="825" y="370"/>
      <point x="696" y="249"/>
      <point x="596" y="249" type="qcurve" smooth="yes"/>
      <point x="494" y="249"/>
      <point x="366" y="369"/>
      <point x="364" y="463" type="qcurve" smooth="yes"/>
      <point x="364" y="580" type="line" smooth="yes"/>
      <point x="364" y="675"/>
      <point x="490" y="799"/>
      <point x="594" y="799" type="qcurve" smooth="yes"/>
      <point x="695" y="799"/>
      <point x="823" y="679"/>
      <point x="825" y="585" type="qcurve" smooth="yes"/>
    </contour>
    <contour>
      <point x="892" y="252" type="line"/>
      <point x="892" y="801" type="line"/>
      <point x="1080" y="801" type="line" smooth="yes"/>
      <point x="1178" y="801"/>
      <point x="1292" y="728"/>
      <point x="1292" y="651" type="qcurve" smooth="yes"/>
      <point x="1292.0" y="609.0" name="inserted"/>
      <point x="1250.0" y="551.0"/>
      <point x="1208" y="535" type="qcurve"/>
      <point x="1258" y="522"/>
      <point x="1310" y="452"/>
      <point x="1310" y="407" type="qcurve" smooth="yes"/>
      <point x="1310.0" y="329.5" name="inserted"/>
      <point x="1206.0" y="252.0"/>
      <point x="1102" y="252" type="qcurve" smooth="yes"/>
    </contour>
    <contour>
      <point x="733" y="580" type="line" smooth="yes"/>
      <point x="733" y="649"/>
      <point x="659" y="727"/>
      <point x="594" y="727" type="qcurve" smooth="yes"/>
      <point x="530" y="727"/>
      <point x="456" y="649"/>
      <point x="456" y="580" type="qcurve" smooth="yes"/>
      <point x="456" y="468" type="line" smooth="yes"/>
      <point x="456" y="399"/>
      <point x="530" y="321"/>
      <point x="596" y="321" type="qcurve" smooth="yes"/>
      <point x="660" y="321"/>
      <point x="733" y="399"/>
      <point x="733" y="468" type="qcurve" smooth="yes"/>
    </contour>
    <contour>
      <point x="1687" y="803" type="line"/>
      <point x="1779" y="803" type="line"/>
      <point x="1779" y="425" type="line" smooth="yes"/>
      <point x="1779" y="347"/>
      <point x="1674" y="254"/>
      <point x="1592" y="254" type="qcurve" smooth="yes"/>
      <point x="1504" y="254"/>
      <point x="1395" y="335"/>
      <point x="1395" y="418" type="qcurve"/>
      <point x="1488" y="418" type="line"/>
      <point x="1488.0" y="372.5" name="inserted"/>
      <point x="1540.0" y="327.0"/>
      <point x="1592" y="327" type="qcurve" smooth="yes"/>
      <point x="1633" y="327"/>
      <point x="1687" y="381"/>
      <point x="1687" y="425" type="qcurve" smooth="yes"/>
    </contour>
    <contour>
      <point x="91" y="-398" type="line"/>
      <point x="91" y="-83" type="line"/>
      <point x="204" y="-83" type="line"/>
      <point x="204" y="-285" type="line"/>
      <point x="400" y="-285" type="line"/>
      <point x="400" y="-398" type="line"/>
    </contour>
    <contour>
      <point x="1720" y="-398" type="line"/>
      <point x="1720" y="-285" type="line"/>
      <point x="1919" y="-285" type="line"/>
      <point x="1919" y="-83" type="line"/>
      <point x="2030" y="-83" type="line"/>
      <point x="2030" y="-398" type="line"/>
    </contour>
    <contour>
      <point x="91" y="1169" type="line"/>
      <point x="91" y="1454" type="line"/>
      <point x="400" y="1454" type="line"/>
      <point x="400" y="1338" type="line"/>
      <point x="204" y="1338" type="line"/>
      <point x="204" y="1169" type="line"/>
    </contour>
    <contour>
      <point x="1720" y="1338" type="line"/>
      <point x="1720" y="1454" type="line"/>
      <point x="2030" y="1454" type="line"/>
      <point x="2030" y="1169" type="line"/>
      <point x="1919" y="1169" type="line"/>
      <point x="1919" y="1338" type="line"/>
    </contour>
    <contour>
      <point x="987" y="496" type="line"/>
      <point x="987" y="327" type="line"/>
      <point x="1113" y="327" type="line" smooth="yes"/>
      <point x="1164.5" y="327.0" name="inserted"/>
      <point x="1216.0" y="368.5"/>
      <point x="1216" y="410" type="qcurve" smooth="yes"/>
      <point x="1216.0" y="451.0" name="inserted"/>
      <point x="1167.0" y="494.0"/>
      <point x="1118" y="496" type="qcurve" smooth="yes"/>
    </contour>
    <contour>
      <point x="1321" y="1338" type="line"/>
      <point x="1321" y="1454" type="line"/>
      <point x="1599" y="1454" type="line"/>
      <point x="1599" y="1338" type="line"/>
    </contour>
    <contour>
      <point x="922" y="1338" type="line"/>
      <point x="922" y="1454" type="line"/>
      <point x="1199" y="1454" type="line"/>
      <point x="1199" y="1338" type="line"/>
    </contour>
    <contour>
      <point x="523" y="1338" type="line"/>
      <point x="523" y="1454" type="line"/>
      <point x="799" y="1454" type="line"/>
      <point x="799" y="1338" type="line"/>
    </contour>
    <contour>
      <point x="1321" y="-398" type="line"/>
      <point x="1321" y="-285" type="line"/>
      <point x="1599" y="-285" type="line"/>
      <point x="1599" y="-398" type="line"/>
    </contour>
    <contour>
      <point x="922" y="-398" type="line"/>
      <point x="922" y="-285" type="line"/>
      <point x="1199" y="-285" type="line"/>
      <point x="1199" y="-398" type="line"/>
    </contour>
    <contour>
      <point x="523" y="-398" type="line"/>
      <point x="523" y="-285" type="line"/>
      <point x="799" y="-285" type="line"/>
      <point x="799" y="-398" type="line"/>
    </contour>
    <contour>
      <point x="987" y="566" type="line"/>
      <point x="1080" y="566" type="line" smooth="yes"/>
      <point x="1139.0" y="566.0" name="inserted"/>
      <point x="1198.0" y="606.0"/>
      <point x="1198" y="646" type="qcurve" smooth="yes"/>
      <point x="1198" y="687"/>
      <point x="1140" y="717"/>
      <point x="1080" y="717" type="qcurve" smooth="yes"/>
      <point x="987" y="717" type="line"/>
    </contour>
    <contour>
      <point x="204" y="416" type="line"/>
      <point x="91" y="416" type="line"/>
      <point x="91" y="668" type="line"/>
      <point x="204" y="668" type="line"/>
    </contour>
    <contour>
      <point x="204" y="794" type="line"/>
      <point x="91" y="794" type="line"/>
      <point x="91" y="1044" type="line"/>
      <point x="204" y="1044" type="line"/>
    </contour>
    <contour>
      <point x="204" y="41" type="line"/>
      <point x="91" y="41" type="line"/>
      <point x="91" y="290" type="line"/>
      <point x="204" y="290" type="line"/>
    </contour>
    <contour>
      <point x="2030" y="416" type="line"/>
      <point x="1919" y="416" type="line"/>
      <point x="1919" y="668" type="line"/>
      <point x="2030" y="668" type="line"/>
    </contour>
    <contour>
      <point x="2030" y="794" type="line"/>
      <point x="1919" y="794" type="line"/>
      <point x="1919" y="1044" type="line"/>
      <point x="2030" y="1044" type="line"/>
    </contour>
    <contour>
      <point x="2030" y="41" type="line"/>
      <point x="1919" y="41" type="line"/>
      <point x="1919" y="290" type="line"/>
      <point x="2030" y="290" type="line"/>
    </contour>
  </outline>
</glyph>
<glyph name="uniFFFD" format="2">
  <advance width="2101"/>
  <unicode hex="FFFD"/>
  <outline>
    <contour>
      <point x="1048" y="1618" type="line"/>
      <point x="2007" y="643" type="line"/>
      <point x="1048" y="-332" type="line"/>
      <point x="92" y="643" type="line"/>
    </contour>
    <contour>
      <point x="1131" y="402" type="line"/>
      <point x="1131" y="460"/>
      <point x="1161" y="518"/>
      <point x="1197" y="542" type="qcurve"/>
      <point x="1271" y="581"/>
      <point x="1363" y="716"/>
      <point x="1363" y="790" type="qcurve" smooth="yes"/>
      <point x="1363" y="918"/>
      <point x="1196" y="1069"/>
      <point x="1047" y="1069" type="qcurve" smooth="yes"/>
      <point x="903" y="1069"/>
      <point x="743" y="930"/>
      <point x="741" y="803" type="qcurve"/>
      <point x="944" y="803" type="line"/>
      <point x="946" y="854"/>
      <point x="1004" y="906"/>
      <point x="1047" y="906" type="qcurve" smooth="yes"/>
      <point x="1104" y="906"/>
      <point x="1160" y="842"/>
      <point x="1160" y="790" type="qcurve" smooth="yes"/>
      <point x="1160.0" y="742.5" name="inserted"/>
      <point x="1113.5" y="665.0"/>
      <point x="1067" y="635" type="qcurve" smooth="yes"/>
      <point x="976" y="570"/>
      <point x="929" y="478"/>
      <point x="929" y="402" type="qcurve"/>
    </contour>
    <contour>
      <point x="1131" y="311" type="line"/>
      <point x="929" y="311" type="line"/>
      <point x="929" y="141" type="line"/>
      <point x="1131" y="141" type="line"/>
    </contour>
    <contour>
      <point x="1056" y="-551" type="line"/>
      <point x="1060" y="-551" type="line"/>
      <point x="1060" y="-555" type="line"/>
      <point x="1056" y="-555" type="line"/>
    </contour>
    <contour>
      <point x="1054" y="2163" type="line"/>
      <point x="1058" y="2163" type="line"/>
      <point x="1058" y="2159" type="line"/>
      <point x="1054" y="2159" type="line"/>
    </contour>
  </outline>
</glyph>
<glyph name="glyph00448" format="2">
  <advance width="1262"/>
  <outline>
    <contour>
      <point x="1174" y="939" type="line"/>
      <point x="972" y="939" type="line"/>
      <point x="972" y="268" type="line" smooth="yes"/>
      <point x="972" y="203"/>
      <point x="1026" y="138"/>
      <point x="1091" y="138" type="qcurve" smooth="yes"/>
      <point x="1108.5" y="138.0" name="inserted"/>
      <point x="1152.0" y="144.0"/>
      <point x="1178" y="150" type="qcurve"/>
      <point x="1179" y="0" type="line"/>
      <point x="1142.5" y="-10.0" name="inserted"/>
      <point x="1071.0" y="-20.0"/>
      <point x="1036" y="-20" type="qcurve" smooth="yes"/>
      <point x="912" y="-20"/>
      <point x="786" y="130"/>
      <point x="786" y="268" type="qcurve" smooth="yes"/>
      <point x="786" y="939" type="line"/>
      <point x="589" y="939" type="line"/>
      <point x="589" y="1082" type="line"/>
      <point x="786" y="1082" type="line"/>
      <point x="786" y="1369" type="line"/>
      <point x="755.5" y="1383.0" name="inserted"/>
      <point x="674.0" y="1400.5"/>
      <point x="623" y="1404" type="qcurve" smooth="yes"/>
      <point x="599" y="1405" type="line" smooth="yes"/>
      <point x="507.5" y="1405.0" name="inserted"/>
      <point x="416.0" y="1294.5"/>
      <point x="416" y="1184" type="qcurve" smooth="yes"/>
      <point x="416" y="0" type="line"/>
      <point x="231" y="0" type="line"/>
      <point x="231" y="939" type="line"/>
      <point x="60" y="939" type="line"/>
      <point x="60" y="1082" type="line"/>
      <point x="231" y="1082" type="line"/>
      <point x="231" y="1194" type="line" smooth="yes"/>
      <point x="231" y="1367"/>
      <point x="410" y="1557"/>
      <point x="570" y="1557" type="qcurve" smooth="yes"/>
      <point x="663" y="1557"/>
      <point x="882" y="1500"/>
      <point x="972" y="1456" type="qcurve"/>
      <point x="972" y="1082" type="line"/>
      <point x="1174" y="1082" type="line"/>
    </contour>
  </outline>
</glyph>
<glyph name="glyph00449" format="2">
  <advance width="1691"/>
  <outline>
    <contour>
      <point x="1615" y="939" type="line"/>
      <point x="1413" y="939" type="line"/>
      <point x="1413" y="297" type="line" smooth="yes"/>
      <point x="1413.0" y="217.5" name="inserted"/>
      <point x="1472.5" y="138.0"/>
      <point x="1532" y="138" type="qcurve" smooth="yes"/>
      <point x="1549.5" y="138.0" name="inserted"/>
      <point x="1593.0" y="144.0"/>
      <point x="1619" y="150" type="qcurve"/>
      <point x="1620" y="0" type="line"/>
      <point x="1581.5" y="-10.0" name="inserted"/>
      <point x="1510.0" y="-20.0"/>
      <point x="1477" y="-20" type="qcurve" smooth="yes"/>
      <point x="1359" y="-20"/>
      <point x="1227" y="146"/>
      <point x="1227" y="297" type="qcurve" smooth="yes"/>
      <point x="1227" y="939" type="line"/>
      <point x="1039" y="939" type="line"/>
      <point x="1039" y="1082" type="line"/>
      <point x="1227" y="1082" type="line"/>
      <point x="1227" y="1167" type="line" smooth="yes"/>
      <point x="1227" y="1281"/>
      <point x="1125" y="1398"/>
      <point x="1027" y="1398" type="qcurve" smooth="yes"/>
      <point x="939" y="1398"/>
      <point x="847" y="1310"/>
      <point x="847" y="1240" type="qcurve" smooth="yes"/>
      <point x="847" y="1181"/>
      <point x="878" y="1076"/>
      <point x="896.5" y="1020.0" type="qcurve" smooth="yes" name="inserted"/>
      <point x="915" y="964"/>
      <point x="945" y="840"/>
      <point x="945" y="764" type="qcurve"/>
      <point x="759" y="764" type="line"/>
      <point x="759" y="840"/>
      <point x="630" y="950"/>
      <point x="532" y="950" type="qcurve" smooth="yes"/>
      <point x="431" y="950"/>
      <point x="317" y="862"/>
      <point x="317" y="791" type="qcurve" smooth="yes"/>
      <point x="317" y="724"/>
      <point x="423" y="656"/>
      <point x="561.5" y="625.0" type="qcurve" smooth="yes" name="inserted"/>
      <point x="700" y="594"/>
      <point x="872" y="508"/>
      <point x="913.5" y="447.5" type="qcurve" smooth="yes" name="inserted"/>
      <point x="934.25" y="417.25" name="inserted"/>
      <point x="955.0" y="343.5"/>
      <point x="955" y="300" type="qcurve" smooth="yes"/>
      <point x="955" y="155"/>
      <point x="723" y="-20"/>
      <point x="538" y="-20" type="qcurve" smooth="yes"/>
      <point x="408" y="-20"/>
      <point x="208" y="72"/>
      <point x="151.5" y="154.5" type="qcurve" smooth="yes" name="inserted"/>
      <point x="123.25" y="195.75" name="inserted"/>
      <point x="95.0" y="285.0"/>
      <point x="95" y="333" type="qcurve"/>
      <point x="280" y="333" type="line"/>
      <point x="285" y="240"/>
      <point x="424" y="131"/>
      <point x="538" y="131" type="qcurve" smooth="yes"/>
      <point x="643" y="131"/>
      <point x="770" y="216"/>
      <point x="770" y="287" type="qcurve" smooth="yes"/>
      <point x="770" y="362"/>
      <point x="657" y="445"/>
      <point x="516.5" y="475.0" type="qcurve" smooth="yes" name="inserted"/>
      <point x="376" y="505"/>
      <point x="211" y="589"/>
      <point x="171.5" y="647.0" type="qcurve" smooth="yes" name="inserted"/>
      <point x="151.75" y="676.0" name="inserted"/>
      <point x="132.0" y="745.0"/>
      <point x="132" y="785" type="qcurve" smooth="yes"/>
      <point x="132" y="918"/>
      <point x="357" y="1102"/>
      <point x="532" y="1102" type="qcurve" smooth="yes"/>
      <point x="580.0" y="1102.0" name="inserted"/>
      <point x="671.0" y="1087.0"/>
      <point x="714" y="1072" type="qcurve"/>
      <point x="692.0" y="1127.0" name="inserted"/>
      <point x="670.0" y="1223.0"/>
      <point x="670" y="1264" type="qcurve" smooth="yes"/>
      <point x="670" y="1388"/>
      <point x="872" y="1553"/>
      <point x="1027" y="1553" type="qcurve" smooth="yes"/>
      <point x="1212" y="1553"/>
      <point x="1413" y="1354"/>
      <point x="1413" y="1159" type="qcurve" smooth="yes"/>
      <point x="1413" y="1082" type="line"/>
      <point x="1615" y="1082" type="line"/>
    </contour>
  </outline>
</glyph>
<glyph name="glyph00455" format="2">
  <advance width="751"/>
  <outline>
    <contour>
      <point x="669" y="325" type="line" smooth="yes"/>
      <point x="669" y="163"/>
      <point x="517" y="-11"/>
      <point x="376" y="-11" type="qcurve" smooth="yes"/>
      <point x="237" y="-11"/>
      <point x="81" y="161"/>
      <point x="80" y="321" type="qcurve" smooth="yes"/>
      <point x="80" y="463" type="line" smooth="yes"/>
      <point x="80" y="626"/>
      <point x="235" y="800"/>
      <point x="374" y="800" type="qcurve" smooth="yes"/>
      <point x="515" y="800"/>
      <point x="667" y="628"/>
      <point x="669" y="471" type="qcurve" smooth="yes"/>
    </contour>
    <contour>
      <point x="512" y="478" type="line" smooth="yes"/>
      <point x="512.0" y="574.0" name="inserted"/>
      <point x="443.0" y="670.0"/>
      <point x="374" y="670" type="qcurve" smooth="yes"/>
      <point x="307.5" y="670.0" name="inserted"/>
      <point x="239.0" y="580.0"/>
      <point x="237" y="490" type="qcurve"/>
      <point x="237" y="311" type="line" smooth="yes"/>
      <point x="237.0" y="214.0" name="inserted"/>
      <point x="306.5" y="117.0"/>
      <point x="376" y="117" type="qcurve" smooth="yes"/>
      <point x="442.0" y="117.0" name="inserted"/>
      <point x="510.0" y="207.5"/>
      <point x="512" y="298" type="qcurve" smooth="yes"/>
    </contour>
  </outline>
</glyph>
<glyph name="glyph00457" format="2">
  <advance width="1039"/>
  <outline>
    <contour>
      <point x="912" y="858" type="qcurve" smooth="yes"/>
      <point x="912" y="772"/>
      <point x="813" y="637"/>
      <point x="728" y="599" type="qcurve"/>
      <point x="826" y="561"/>
      <point x="941" y="414"/>
      <point x="941" y="316" type="qcurve" smooth="yes"/>
      <point x="941" y="165"/>
      <point x="709" y="-16"/>
      <point x="519.0" y="-16.0" type="qcurve" smooth="yes" name="inserted"/>
      <point x="329" y="-16"/>
      <point x="96" y="163"/>
      <point x="96" y="316" type="qcurve" smooth="yes"/>
      <point x="96" y="415"/>
      <point x="209" y="561"/>
      <point x="307" y="600" type="qcurve"/>
      <point x="222" y="638"/>
      <point x="126" y="772"/>
      <point x="126" y="858" type="qcurve" smooth="yes"/>
      <point x="126" y="1006"/>
      <point x="340" y="1181"/>
      <point x="517.0" y="1181.0" type="qcurve" smooth="yes" name="inserted"/>
      <point x="694" y="1181"/>
      <point x="912" y="1006"/>
    </contour>
    <contour>
      <point x="756" y="326" type="qcurve" smooth="yes"/>
      <point x="756" y="412"/>
      <point x="625" y="522"/>
      <point x="517" y="522" type="qcurve" smooth="yes"/>
      <point x="410" y="522"/>
      <point x="282" y="414"/>
      <point x="282" y="326" type="qcurve" smooth="yes"/>
      <point x="282" y="235"/>
      <point x="409" y="135"/>
      <point x="519" y="135" type="qcurve" smooth="yes"/>
      <point x="628" y="135"/>
      <point x="756" y="238"/>
    </contour>
    <contour>
      <point x="726" y="851" type="qcurve" smooth="yes"/>
      <point x="726" y="929"/>
      <point x="610" y="1029"/>
      <point x="517" y="1029" type="qcurve" smooth="yes"/>
      <point x="423" y="1029"/>
      <point x="313" y="932"/>
      <point x="313" y="851" type="qcurve" smooth="yes"/>
      <point x="313" y="771"/>
      <point x="424" y="673"/>
      <point x="519.0" y="673.0" type="qcurve" smooth="yes" name="inserted"/>
      <point x="614" y="673"/>
      <point x="726" y="772"/>
    </contour>
  </outline>
</glyph>
<glyph name="glyph00472" format="2">
  <advance width="1062"/>
  <outline>
    <contour>
      <point x="1021" y="1012" type="line"/>
      <point x="622" y="1012" type="line"/>
      <point x="622" y="0" type="line"/>
      <point x="437" y="0" type="line"/>
      <point x="437" y="1012" type="line"/>
      <point x="40" y="1012" type="line"/>
      <point x="40" y="1165" type="line"/>
      <point x="1021" y="1165" type="line"/>
    </contour>
  </outline>
</glyph>
<glyph name="glyph00482" format="2">
  <advance width="975"/>
  <outline>
    <contour>
      <point x="658" y="1165" type="line"/>
      <point x="845" y="1165" type="line"/>
      <point x="845" y="338" type="line" smooth="yes"/>
      <point x="845" y="181"/>
      <point x="633" y="-16"/>
      <point x="456" y="-16" type="qcurve" smooth="yes"/>
      <point x="262" y="-16"/>
      <point x="43" y="167"/>
      <point x="43" y="331" type="qcurve"/>
      <point x="229" y="331" type="line"/>
      <point x="229" y="237"/>
      <point x="342" y="135"/>
      <point x="456" y="135" type="qcurve" smooth="yes"/>
      <point x="548" y="135"/>
      <point x="658" y="244"/>
      <point x="658" y="339" type="qcurve" smooth="yes"/>
    </contour>
  </outline>
</glyph>
<glyph name="glyph00493" format="2">
  <advance width="1127"/>
  <outline>
    <contour>
      <point x="219" y="0" type="line"/>
      <point x="20" y="0" type="line"/>
      <point x="477" y="1165" type="line"/>
      <point x="650" y="1165" type="line"/>
      <point x="1107" y="0" type="line"/>
      <point x="909" y="0" type="line"/>
      <point x="589" y="874" type="line"/>
      <point x="563" y="966" type="line"/>
      <point x="538" y="872" type="line"/>
    </contour>
  </outline>
</glyph>
<glyph name="glyph00497" format="2">
  <advance width="1383"/>
  <outline>
    <contour>
      <point x="784" y="1046" type="line"/>
      <point x="1014" y="1033"/>
      <point x="1286" y="783"/>
      <point x="1286" y="580" type="qcurve" smooth="yes"/>
      <point x="1286" y="375"/>
      <point x="1011" y="123"/>
      <point x="784" y="110" type="qcurve"/>
      <point x="784" y="0" type="line"/>
      <point x="599" y="0" type="line"/>
      <point x="599" y="110" type="line"/>
      <point x="365" y="123"/>
      <point x="96" y="376"/>
      <point x="96" y="578" type="qcurve" smooth="yes"/>
      <point x="96" y="782"/>
      <point x="368" y="1034"/>
      <point x="599" y="1047" type="qcurve"/>
      <point x="599" y="1165" type="line"/>
      <point x="784" y="1165" type="line"/>
    </contour>
    <contour>
      <point x="280" y="578" type="qcurve" smooth="yes"/>
      <point x="280.0" y="430.0" name="inserted"/>
      <point x="439.5" y="273.5"/>
      <point x="599" y="265" type="qcurve"/>
      <point x="599" y="891" type="line"/>
      <point x="445" y="882"/>
      <point x="280" y="732"/>
    </contour>
    <contour>
      <point x="1102" y="580" type="qcurve" smooth="yes"/>
      <point x="1102" y="733"/>
      <point x="936" y="882"/>
      <point x="784" y="891" type="qcurve"/>
      <point x="784" y="265" type="line"/>
      <point x="936" y="275"/>
      <point x="1102" y="425"/>
    </contour>
  </outline>
</glyph>
<glyph name="glyph00498" format="2">
  <advance width="1303"/>
  <outline>
    <contour>
      <point x="744" y="443" type="line"/>
      <point x="882.5" y="468.5" name="inserted"/>
      <point x="1021.0" y="675.5"/>
      <point x="1021" y="857" type="qcurve" smooth="yes"/>
      <point x="1021" y="1165" type="line"/>
      <point x="1206" y="1165" type="line"/>
      <point x="1206" y="842" type="line"/>
      <point x="1203" y="599"/>
      <point x="961" y="313"/>
      <point x="744" y="289" type="qcurve"/>
      <point x="744" y="0" type="line"/>
      <point x="558" y="0" type="line"/>
      <point x="558" y="287" type="line"/>
      <point x="341" y="307"/>
      <point x="101" y="592"/>
      <point x="96" y="834" type="qcurve" smooth="yes"/>
      <point x="96" y="1165" type="line"/>
      <point x="282" y="1165" type="line"/>
      <point x="282" y="856" type="line" smooth="yes"/>
      <point x="282.0" y="671.0" name="inserted"/>
      <point x="420.0" y="463.5"/>
      <point x="558" y="441" type="qcurve"/>
      <point x="558" y="1165" type="line"/>
      <point x="744" y="1165" type="line"/>
    </contour>
  </outline>
</glyph>
<glyph name="glyph00504" format="2">
  <advance width="1396"/>
  <outline>
    <contour>
      <point x="395" y="1012" type="line"/>
      <point x="40" y="1012" type="line"/>
      <point x="40" y="1165" type="line"/>
      <point x="945" y="1165" type="line"/>
      <point x="945" y="1012" type="line"/>
      <point x="581" y="1012" type="line"/>
      <point x="581" y="715" type="line"/>
      <point x="654.5" y="739.5" name="inserted"/>
      <point x="808.0" y="764.0"/>
      <point x="888" y="764" type="qcurve" smooth="yes"/>
      <point x="1100" y="764"/>
      <point x="1322" y="562"/>
      <point x="1326" y="369" type="qcurve" smooth="yes"/>
      <point x="1326" y="0" type="line"/>
      <point x="1140" y="0" type="line"/>
      <point x="1140" y="356" type="line" smooth="yes"/>
      <point x="1140" y="491"/>
      <point x="1015" y="612"/>
      <point x="888" y="612" type="qcurve" smooth="yes"/>
      <point x="809.5" y="612.0" name="inserted"/>
      <point x="656.0" y="587.0"/>
      <point x="581" y="562" type="qcurve"/>
      <point x="581" y="0" type="line"/>
      <point x="395" y="0" type="line"/>
    </contour>
  </outline>
</glyph>
<glyph name="glyph00505" format="2">
  <advance width="1229"/>
  <outline>
    <contour>
      <point x="1091" y="0" type="line"/>
      <point x="708" y="0" type="line"/>
      <point x="708" y="-357" type="line"/>
      <point x="523" y="-357" type="line"/>
      <point x="523" y="0" type="line"/>
      <point x="138" y="0" type="line"/>
      <point x="138" y="1165" type="line"/>
      <point x="323" y="1165" type="line"/>
      <point x="323" y="152" type="line"/>
      <point x="906" y="152" type="line"/>
      <point x="906" y="1165" type="line"/>
      <point x="1091" y="1165" type="line"/>
    </contour>
  </outline>
</glyph>
<glyph name="glyph00507" format="2">
  <advance width="1316"/>
  <outline>
    <contour>
      <point x="133" y="152" type="line"/>
      <point x="174" y="201" type="line" smooth="yes"/>
      <point x="245" y="287"/>
      <point x="316" y="540"/>
      <point x="323" y="756" type="qcurve" smooth="yes"/>
      <point x="337" y="1165" type="line"/>
      <point x="1112" y="1165" type="line"/>
      <point x="1112" y="152" type="line"/>
      <point x="1255" y="152" type="line"/>
      <point x="1255" y="-340" type="line"/>
      <point x="1070" y="-340" type="line"/>
      <point x="1070" y="0" type="line"/>
      <point x="232" y="0" type="line"/>
      <point x="232" y="-339" type="line"/>
      <point x="46" y="-339" type="line"/>
      <point x="47" y="152" type="line"/>
    </contour>
    <contour>
      <point x="349" y="152" type="qcurve"/>
      <point x="927" y="152" type="line"/>
      <point x="927" y="1012" type="line"/>
      <point x="515" y="1012" type="line"/>
      <point x="503" y="700" type="line" smooth="yes"/>
      <point x="494.5" y="520.5" name="inserted"/>
      <point x="417.5" y="246.5"/>
    </contour>
  </outline>
</glyph>
<glyph name="glyph00522" format="2">
  <advance width="1654"/>
  <outline>
    <contour>
      <point x="1557" y="548" type="line" smooth="yes"/>
      <point x="1557" y="287"/>
      <point x="1281" y="-16"/>
      <point x="1049" y="-16" type="qcurve" smooth="yes"/>
      <point x="828" y="-16"/>
      <point x="551" y="268"/>
      <point x="539" y="510" type="qcurve"/>
      <point x="323" y="510" type="line"/>
      <point x="323" y="0" type="line"/>
      <point x="138" y="0" type="line"/>
      <point x="138" y="1165" type="line"/>
      <point x="323" y="1165" type="line"/>
      <point x="323" y="662" type="line"/>
      <point x="539" y="662" type="line"/>
      <point x="553" y="903"/>
      <point x="829" y="1181"/>
      <point x="1047" y="1181" type="qcurve" smooth="yes"/>
      <point x="1280" y="1181"/>
      <point x="1555" y="877"/>
      <point x="1557" y="622" type="qcurve" smooth="yes"/>
    </contour>
    <contour>
      <point x="1374" y="617" type="line" smooth="yes"/>
      <point x="1374" y="815"/>
      <point x="1202" y="1025"/>
      <point x="1047" y="1025" type="qcurve" smooth="yes"/>
      <point x="897" y="1025"/>
      <point x="722" y="811"/>
      <point x="722" y="614" type="qcurve" smooth="yes"/>
      <point x="722" y="548" type="line" smooth="yes"/>
      <point x="722" y="353"/>
      <point x="898" y="138"/>
      <point x="1049" y="138" type="qcurve" smooth="yes"/>
      <point x="1205" y="138"/>
      <point x="1374" y="349"/>
      <point x="1374" y="548" type="qcurve" smooth="yes"/>
    </contour>
  </outline>
</glyph>
<glyph name="glyph00525" format="2">
  <advance width="1607"/>
  <outline>
    <contour>
      <point x="1123" y="602" type="line"/>
      <point x="1417" y="150" type="line"/>
      <point x="1570" y="150" type="line"/>
      <point x="1570" y="-340" type="line"/>
      <point x="1403" y="-340" type="line"/>
      <point x="1403" y="0" type="line"/>
      <point x="1281" y="0" type="line"/>
      <point x="965" y="502" type="line"/>
      <point x="866" y="502" type="line"/>
      <point x="866" y="0" type="line"/>
      <point x="680" y="0" type="line"/>
      <point x="680" y="502" type="line"/>
      <point x="580" y="502" type="line"/>
      <point x="265" y="0" type="line"/>
      <point x="31" y="0" type="line"/>
      <point x="421" y="593" type="line"/>
      <point x="67" y="1165" type="line"/>
      <point x="291" y="1165" type="line"/>
      <point x="591" y="656" type="line"/>
      <point x="680" y="656" type="line"/>
      <point x="680" y="1165" type="line"/>
      <point x="866" y="1165" type="line"/>
      <point x="866" y="656" type="line"/>
      <point x="955" y="656" type="line"/>
      <point x="1255" y="1165" type="line"/>
      <point x="1479" y="1165" type="line"/>
    </contour>
  </outline>
</glyph>
<glyph name="glyph00537" format="2">
  <advance width="1087"/>
  <outline>
    <contour>
      <point x="691" y="1012" type="line"/>
      <point x="111" y="1012" type="line"/>
      <point x="111" y="1165" type="line"/>
      <point x="935" y="1165" type="line"/>
      <point x="937" y="1047" type="line"/>
      <point x="594" y="690" type="line"/>
      <point x="771" y="674"/>
      <point x="980" y="477"/>
      <point x="980" y="338" type="qcurve" smooth="yes"/>
      <point x="980" y="171"/>
      <point x="728" y="-19"/>
      <point x="513" y="-19" type="qcurve" smooth="yes"/>
      <point x="424" y="-19"/>
      <point x="253" y="26"/>
      <point x="193" y="72" type="qcurve" smooth="yes"/>
      <point x="132.0" y="117.0" name="inserted"/>
      <point x="71.0" y="241.0"/>
      <point x="71" y="320" type="qcurve"/>
      <point x="256" y="320" type="line"/>
      <point x="261" y="231"/>
      <point x="398" y="131"/>
      <point x="513" y="131" type="qcurve" smooth="yes"/>
      <point x="649" y="131"/>
      <point x="795" y="235"/>
      <point x="795" y="341" type="qcurve" smooth="yes"/>
      <point x="795" y="436"/>
      <point x="657" y="542"/>
      <point x="523" y="542" type="qcurve" smooth="yes"/>
      <point x="395" y="542" type="line"/>
      <point x="395" y="707" type="line"/>
    </contour>
  </outline>
</glyph>
<glyph name="glyph00538" format="2">
  <advance width="1211"/>
  <outline>
    <contour>
      <point x="1114" y="548" type="line" smooth="yes"/>
      <point x="1114" y="287"/>
      <point x="838" y="-16"/>
      <point x="606" y="-16" type="qcurve" smooth="yes"/>
      <point x="377" y="-16"/>
      <point x="96" y="290"/>
      <point x="96" y="553" type="qcurve" smooth="yes"/>
      <point x="96" y="615" type="line" smooth="yes"/>
      <point x="96" y="873"/>
      <point x="375" y="1181"/>
      <point x="604" y="1181" type="qcurve" smooth="yes"/>
      <point x="837" y="1181"/>
      <point x="1112" y="877"/>
      <point x="1114" y="622" type="qcurve" smooth="yes"/>
    </contour>
    <contour>
      <point x="606" y="138" type="qcurve" smooth="yes"/>
      <point x="753" y="138"/>
      <point x="921" y="326"/>
      <point x="930" y="506" type="qcurve"/>
      <point x="280" y="506" type="line"/>
      <point x="290" y="330"/>
      <point x="463" y="138"/>
    </contour>
    <contour>
      <point x="604" y="1025" type="qcurve" smooth="yes"/>
      <point x="459" y="1025"/>
      <point x="288" y="830"/>
      <point x="280" y="658" type="qcurve"/>
      <point x="930" y="658" type="line"/>
      <point x="921" y="837"/>
      <point x="751" y="1025"/>
    </contour>
  </outline>
</glyph>
<glyph name="glyph00561" format="2">
  <advance width="1148"/>
  <outline>
    <contour>
      <point x="1072" y="377" type="line"/>
      <point x="1052" y="190"/>
      <point x="800" y="-16"/>
      <point x="591" y="-16" type="qcurve" smooth="yes"/>
      <point x="367" y="-16"/>
      <point x="96" y="279"/>
      <point x="96" y="538" type="qcurve" smooth="yes"/>
      <point x="96" y="632" type="line" smooth="yes"/>
      <point x="96" y="796"/>
      <point x="219" y="1045"/>
      <point x="334.5" y="1113.0" type="qcurve" smooth="yes" name="inserted"/>
      <point x="392.25" y="1147.0" name="inserted"/>
      <point x="526.0" y="1181.0"/>
      <point x="602" y="1181" type="qcurve" smooth="yes"/>
      <point x="806" y="1181"/>
      <point x="1053" y="970"/>
      <point x="1072" y="783" type="qcurve"/>
      <point x="887" y="783" type="line"/>
      <point x="869" y="913"/>
      <point x="728" y="1029"/>
      <point x="602" y="1029" type="qcurve" smooth="yes"/>
      <point x="449" y="1029"/>
      <point x="282" y="826"/>
      <point x="281" y="637" type="qcurve"/>
      <point x="281" y="531" type="line" smooth="yes"/>
      <point x="281" y="342"/>
      <point x="440" y="135"/>
      <point x="591" y="135" type="qcurve" smooth="yes"/>
      <point x="726" y="135"/>
      <point x="867" y="246"/>
      <point x="887" y="377" type="qcurve"/>
    </contour>
  </outline>
</glyph>
<glyph name="glyph00562" format="2">
  <advance width="1104"/>
  <outline>
    <contour>
      <point x="138" y="0" type="line"/>
      <point x="138" y="1165" type="line"/>
      <point x="544" y="1165" type="line" smooth="yes"/>
      <point x="753" y="1165"/>
      <point x="975" y="1002"/>
      <point x="975" y="847" type="qcurve" smooth="yes"/>
      <point x="975" y="766"/>
      <point x="880" y="640"/>
      <point x="792" y="607" type="qcurve"/>
      <point x="891" y="583"/>
      <point x="1007" y="434"/>
      <point x="1007" y="333" type="qcurve" smooth="yes"/>
      <point x="1007" y="175"/>
      <point x="789" y="1"/>
      <point x="588" y="0" type="qcurve" smooth="yes"/>
    </contour>
    <contour>
      <point x="323" y="530" type="line"/>
      <point x="323" y="151" type="line"/>
      <point x="585" y="151" type="line" smooth="yes"/>
      <point x="700" y="151"/>
      <point x="822" y="249"/>
      <point x="822" y="334" type="qcurve" smooth="yes"/>
      <point x="822.0" y="432.0" name="inserted"/>
      <point x="704.5" y="530.0"/>
      <point x="587" y="530" type="qcurve" smooth="yes"/>
    </contour>
    <contour>
      <point x="323" y="671" type="line"/>
      <point x="557" y="671" type="line" smooth="yes"/>
      <point x="665" y="671"/>
      <point x="789" y="756"/>
      <point x="789" y="839" type="qcurve" smooth="yes"/>
      <point x="789.0" y="923.0" name="inserted"/>
      <point x="674.5" y="1009.5"/>
      <point x="560" y="1012" type="qcurve" smooth="yes"/>
      <point x="323" y="1012" type="line"/>
    </contour>
  </outline>
</glyph>
<glyph name="glyph00571" format="2">
  <advance width="943"/>
  <outline>
    <contour>
      <point x="716" y="1476" type="line"/>
      <point x="901" y="1476" type="line"/>
      <point x="901" y="1012" type="line"/>
      <point x="323" y="1012" type="line"/>
      <point x="323" y="0" type="line"/>
      <point x="138" y="0" type="line"/>
      <point x="138" y="1165" type="line"/>
      <point x="716" y="1165" type="line"/>
    </contour>
  </outline>
</glyph>
<glyph name="glyph00582" format="2">
  <advance width="1454"/>
  <outline>
    <contour>
      <point x="1310" y="190" type="line"/>
      <point x="1243" y="93"/>
      <point x="958" y="-21"/>
      <point x="782" y="-21" type="qcurve" smooth="yes"/>
      <point x="595" y="-21"/>
      <point x="297" y="159"/>
      <point x="213.0" y="322.5" type="qcurve" smooth="yes" name="inserted"/>
      <point x="171.0" y="404.25" name="inserted"/>
      <point x="127.5" y="591.0"/>
      <point x="126" y="696" type="qcurve" smooth="yes"/>
      <point x="126" y="741" type="line" smooth="yes"/>
      <point x="126" y="960"/>
      <point x="281" y="1294"/>
      <point x="423.0" y="1385.0" type="qcurve" smooth="yes" name="inserted"/>
      <point x="494.0" y="1430.5" name="inserted"/>
      <point x="655.5" y="1476.0"/>
      <point x="746" y="1476" type="qcurve" smooth="yes"/>
      <point x="987" y="1476"/>
      <point x="1276" y="1247"/>
      <point x="1310" y="1029" type="qcurve"/>
      <point x="1118" y="1029" type="line"/>
      <point x="1088" y="1178"/>
      <point x="902" y="1318"/>
      <point x="746" y="1318" type="qcurve" smooth="yes"/>
      <point x="565" y="1318"/>
      <point x="329" y="1026"/>
      <point x="319" y="784" type="qcurve" smooth="yes"/>
      <point x="318" y="714" type="line"/>
      <point x="318" y="542"/>
      <point x="438" y="276"/>
      <point x="543.5" y="206.0" type="qcurve" smooth="yes" name="inserted"/>
      <point x="596.25" y="171.0" name="inserted"/>
      <point x="715.5" y="136.0"/>
      <point x="782" y="136" type="qcurve" smooth="yes"/>
      <point x="896" y="136"/>
      <point x="1077" y="194"/>
      <point x="1119" y="242" type="qcurve"/>
      <point x="1119" y="568" type="line"/>
      <point x="783" y="568" type="line"/>
      <point x="783" y="723" type="line"/>
      <point x="1310" y="723" type="line"/>
    </contour>
  </outline>
</glyph>
<glyph name="glyph00588" format="2">
  <advance width="1112"/>
  <outline>
    <contour>
      <point x="740" y="1012" type="line"/>
      <point x="88" y="1012" type="line"/>
      <point x="88" y="1165" type="line"/>
      <point x="970" y="1165" type="line"/>
      <point x="970" y="1047" type="line"/>
      <point x="586" y="643" type="line"/>
      <point x="764" y="619"/>
      <point x="990" y="373"/>
      <point x="990" y="194" type="qcurve" smooth="yes"/>
      <point x="990" y="-55"/>
      <point x="682" y="-349"/>
      <point x="427" y="-349" type="qcurve" smooth="yes"/>
      <point x="326.0" y="-349.0" name="inserted"/>
      <point x="120.0" y="-297.5"/>
      <point x="15" y="-246" type="qcurve"/>
      <point x="67" y="-107" type="line"/>
      <point x="149.5" y="-151.0" name="inserted"/>
      <point x="320.5" y="-195.0"/>
      <point x="409" y="-195" type="qcurve" smooth="yes"/>
      <point x="589" y="-195"/>
      <point x="804" y="7"/>
      <point x="804" y="172" type="qcurve" smooth="yes"/>
      <point x="804" y="343"/>
      <point x="619" y="508"/>
      <point x="427" y="508" type="qcurve" smooth="yes"/>
      <point x="367" y="508" type="line"/>
      <point x="367" y="611" type="line"/>
    </contour>
  </outline>
</glyph>
<glyph name="glyph00612" format="2">
  <advance width="1104"/>
  <outline>
    <contour>
      <point x="451" y="181" type="line"/>
      <point x="492.0" y="155.5" name="inserted"/>
      <point x="577.0" y="130.0"/>
      <point x="621" y="130" type="qcurve" smooth="yes"/>
      <point x="718" y="130"/>
      <point x="832" y="253"/>
      <point x="832" y="352" type="qcurve" smooth="yes"/>
      <point x="832" y="450"/>
      <point x="696" y="535"/>
      <point x="561" y="535" type="qcurve" smooth="yes"/>
      <point x="477" y="535" type="line"/>
      <point x="477" y="672" type="line"/>
      <point x="714" y="967" type="line"/>
      <point x="675.0" y="998.0" name="inserted"/>
      <point x="586.5" y="1029.0"/>
      <point x="537" y="1029" type="qcurve" smooth="yes"/>
      <point x="431.5" y="1029.0" name="inserted"/>
      <point x="324.0" y="895.5"/>
      <point x="322" y="762" type="qcurve"/>
      <point x="322" y="0" type="line"/>
      <point x="138" y="0" type="line"/>
      <point x="138" y="757" type="line" smooth="yes"/>
      <point x="139" y="967"/>
      <point x="336" y="1181"/>
      <point x="537" y="1181" type="qcurve" smooth="yes"/>
      <point x="644" y="1181"/>
      <point x="839" y="1096"/>
      <point x="940" y="998" type="qcurve"/>
      <point x="666" y="668" type="line"/>
      <point x="835" y="653"/>
      <point x="1017" y="490"/>
      <point x="1017" y="356" type="qcurve" smooth="yes"/>
      <point x="1017" y="184"/>
      <point x="802" y="-20"/>
      <point x="621" y="-20" type="qcurve" smooth="yes"/>
      <point x="561.5" y="-20.0" name="inserted"/>
      <point x="450.0" y="4.5"/>
      <point x="398" y="29" type="qcurve"/>
    </contour>
  </outline>
</glyph>
<glyph name="glyph00618" format="2">
  <advance width="1164"/>
  <outline>
    <contour>
      <point x="91" y="550" type="line" smooth="yes"/>
      <point x="91" y="796"/>
      <point x="339" y="1102"/>
      <point x="537" y="1102" type="qcurve" smooth="yes"/>
      <point x="639.0" y="1102.0" name="inserted"/>
      <point x="796.5" y="1028.0"/>
      <point x="852" y="954" type="qcurve"/>
      <point x="867" y="1082" type="line"/>
      <point x="1024" y="1082" type="line"/>
      <point x="1024" y="72" type="line"/>
      <point x="1022" y="-167"/>
      <point x="778" y="-426"/>
      <point x="554" y="-426" type="qcurve" smooth="yes"/>
      <point x="468" y="-426"/>
      <point x="268" y="-371"/>
      <point x="196" y="-321" type="qcurve"/>
      <point x="251" y="-183" type="line"/>
      <point x="314" y="-225"/>
      <point x="473" y="-275"/>
      <point x="552" y="-275" type="qcurve" smooth="yes"/>
      <point x="701" y="-275"/>
      <point x="839" y="-99"/>
      <point x="839" y="69" type="qcurve" smooth="yes"/>
      <point x="839" y="109" type="line"/>
      <point x="783.5" y="44.5" name="inserted"/>
      <point x="631.5" y="-20.0"/>
      <point x="535" y="-20" type="qcurve" smooth="yes"/>
      <point x="341" y="-20"/>
      <point x="91" y="292"/>
      <point x="91" y="536" type="qcurve" smooth="yes"/>
    </contour>
    <contour>
      <point x="276" y="529" type="qcurve" smooth="yes"/>
      <point x="276" y="353"/>
      <point x="442" y="136"/>
      <point x="581" y="136" type="qcurve" smooth="yes"/>
      <point x="668.5" y="136.0" name="inserted"/>
      <point x="797.5" y="216.5"/>
      <point x="839" y="297" type="qcurve"/>
      <point x="839" y="788" type="line"/>
      <point x="797.5" y="866.5" name="inserted"/>
      <point x="669.5" y="945.0"/>
      <point x="583" y="945" type="qcurve" smooth="yes"/>
      <point x="441" y="945"/>
      <point x="276" y="730"/>
    </contour>
  </outline>
</glyph>
<glyph name="glyph00620" format="2">
  <advance width="1165"/>
  <outline>
    <contour>
      <point x="1074" y="529" type="line" smooth="yes"/>
      <point x="1074" y="371"/>
      <point x="964" y="119"/>
      <point x="864.0" y="49.5" type="qcurve" smooth="yes" name="inserted"/>
      <point x="814.0" y="14.75" name="inserted"/>
      <point x="699.5" y="-20.0"/>
      <point x="635" y="-20" type="qcurve" smooth="yes"/>
      <point x="536.5" y="-20.0" name="inserted"/>
      <point x="381.5" y="42.5"/>
      <point x="325" y="105" type="qcurve"/>
      <point x="325" y="-416" type="line"/>
      <point x="140" y="-416" type="line"/>
      <point x="140" y="1082" type="line"/>
      <point x="299" y="1082" type="line"/>
      <point x="314" y="957" type="line"/>
      <point x="372.0" y="1029.5" name="inserted"/>
      <point x="531.0" y="1102.0"/>
      <point x="632" y="1102" type="qcurve" smooth="yes"/>
      <point x="825" y="1102"/>
      <point x="1063" y="823"/>
      <point x="1073" y="589" type="qcurve" smooth="yes"/>
    </contour>
    <contour>
      <point x="889" y="550" type="qcurve" smooth="yes"/>
      <point x="889" y="726"/>
      <point x="720" y="945"/>
      <point x="577" y="945" type="qcurve" smooth="yes"/>
      <point x="493.0" y="945.0" name="inserted"/>
      <point x="367.0" y="870.5"/>
      <point x="325" y="796" type="qcurve"/>
      <point x="325" y="279" type="line"/>
      <point x="366.5" y="205.0" name="inserted"/>
      <point x="493.5" y="131.0"/>
      <point x="579" y="131" type="qcurve" smooth="yes"/>
      <point x="719" y="131"/>
      <point x="889" y="354"/>
    </contour>
  </outline>
</glyph>
<glyph name="glyph00847" format="2">
  <advance width="1157"/>
  <outline>
    <contour>
      <point x="664" y="1165" type="line"/>
      <point x="1136" y="0" type="line"/>
      <point x="1098" y="0" type="line"/>
      <point x="1040" y="-45" type="line" smooth="yes"/>
      <point x="983.5" y="-90.5" name="inserted"/>
      <point x="927.0" y="-179.0"/>
      <point x="927" y="-222" type="qcurve" smooth="yes"/>
      <point x="927.0" y="-258.0" name="inserted"/>
      <point x="966.0" y="-294.0"/>
      <point x="1005" y="-294" type="qcurve" smooth="yes"/>
      <point x="1029.0" y="-294.0" name="inserted"/>
      <point x="1079.0" y="-281.0"/>
      <point x="1105" y="-268" type="qcurve"/>
      <point x="1118" y="-389" type="line"/>
      <point x="1083.0" y="-411.0" name="inserted"/>
      <point x="1003.0" y="-433.0"/>
      <point x="958" y="-433" type="qcurve" smooth="yes"/>
      <point x="869" y="-433"/>
      <point x="766" y="-329"/>
      <point x="766" y="-243" type="qcurve" smooth="yes"/>
      <point x="766.0" y="-169.0" name="inserted"/>
      <point x="854.0" y="-41.0"/>
      <point x="942" y="13" type="qcurve"/>
      <point x="838" y="279" type="line"/>
      <point x="318" y="279" type="line"/>
      <point x="208" y="0" type="line"/>
      <point x="19" y="0" type="line"/>
      <point x="498" y="1165" type="line"/>
    </contour>
    <contour>
      <point x="378" y="430" type="line"/>
      <point x="779" y="430" type="line"/>
      <point x="580" y="939" type="line"/>
    </contour>
  </outline>
</glyph>
<glyph name="glyph00895" format="2">
  <advance width="1148"/>
  <outline>
    <contour>
      <point x="1034" y="1165" type="line"/>
      <point x="1034" y="384" type="line" smooth="yes"/>
      <point x="1034" y="262"/>
      <point x="914" y="76"/>
      <point x="803" y="28" type="qcurve"/>
      <point x="753" y="-12" type="line" smooth="yes"/>
      <point x="699.0" y="-57.5" name="inserted"/>
      <point x="645.0" y="-144.0"/>
      <point x="645" y="-185" type="qcurve" smooth="yes"/>
      <point x="645.0" y="-221.0" name="inserted"/>
      <point x="684.0" y="-257.0"/>
      <point x="723" y="-257" type="qcurve" smooth="yes"/>
      <point x="747.0" y="-257.0" name="inserted"/>
      <point x="797.0" y="-244.0"/>
      <point x="823" y="-231" type="qcurve"/>
      <point x="836" y="-352" type="line"/>
      <point x="801.0" y="-374.0" name="inserted"/>
      <point x="721.0" y="-396.0"/>
      <point x="676" y="-396" type="qcurve" smooth="yes"/>
      <point x="587" y="-396"/>
      <point x="484" y="-292"/>
      <point x="484" y="-206" type="qcurve" smooth="yes"/>
      <point x="484.0" y="-154.0" name="inserted"/>
      <point x="529.0" y="-59.0"/>
      <point x="574" y="-16" type="qcurve"/>
      <point x="369" y="-16"/>
      <point x="120" y="190"/>
      <point x="116" y="374" type="qcurve" smooth="yes"/>
      <point x="116" y="1165" type="line"/>
      <point x="299" y="1165" type="line"/>
      <point x="299" y="385" type="line" smooth="yes"/>
      <point x="299" y="264"/>
      <point x="442" y="135"/>
      <point x="575" y="135" type="qcurve" smooth="yes"/>
      <point x="706" y="135"/>
      <point x="849" y="262"/>
      <point x="849" y="385" type="qcurve" smooth="yes"/>
      <point x="849" y="1165" type="line"/>
    </contour>
  </outline>
</glyph>
